<svg xmlns="http://www.w3.org/2000/svg" xmlns:xlink="http://www.w3.org/1999/xlink" width="601" height="409" viewBox="0 0 601 409"><defs><clipPath id="a"><rect width="601" height="409" fill="#fff"/></clipPath></defs><g clip-path="url(#a)"><path d="M332.637,189.962H181a9.143,9.143,0,0,1-9.128-9.139v-66.55A9.143,9.143,0,0,1,181,105.134H332.637a9.145,9.145,0,0,1,9.128,9.139v66.55a9.145,9.145,0,0,1-9.128,9.139Z" fill="#e6e6e6"/><path d="M11.065,26.719A11.078,11.078,0,1,0,0,15.641,11.072,11.072,0,0,0,11.065,26.719Z" fill="#b9347d"/><path d="M14.32,23.46a11.736,11.736,0,1,1,8.28-3.44A11.706,11.706,0,0,1,14.32,23.46Zm0-22.157a10.432,10.432,0,1,0,7.36,3.057A10.405,10.405,0,0,0,14.32,1.3Z" fill="#3f3d56"/><path d="M145.8,166.176A11.079,11.079,0,1,0,134.732,155.1,11.072,11.072,0,0,0,145.8,166.176Z" fill="#e6e6e6"/><path d="M149.05,162.916a11.736,11.736,0,1,1,8.28-3.439A11.714,11.714,0,0,1,149.05,162.916Zm0-22.156a10.432,10.432,0,1,0,7.36,3.057A10.4,10.4,0,0,0,149.05,140.76Z" fill="#3f3d56"/><path d="M231.712,82.109a11.078,11.078,0,1,0-11.065-11.078A11.071,11.071,0,0,0,231.712,82.109Z" fill="#b9347d"/><path d="M234.965,78.852a11.737,11.737,0,1,1,8.28-3.439A11.706,11.706,0,0,1,234.965,78.852Zm0-22.157a10.433,10.433,0,1,0,7.36,3.057A10.406,10.406,0,0,0,234.965,56.7Z" fill="#3f3d56"/><path d="M185.645,125.866H34a9.144,9.144,0,0,1-9.128-9.139V50.177A9.143,9.143,0,0,1,34,41.039H185.645a9.143,9.143,0,0,1,9.128,9.139v66.55a9.145,9.145,0,0,1-9.128,9.139Z" fill="#b9347d"/><path d="M195.536,119.04H43.895a9.469,9.469,0,0,1-9.453-9.464V43.025a9.469,9.469,0,0,1,9.453-9.464H195.536a9.47,9.47,0,0,1,9.453,9.464v66.551a9.469,9.469,0,0,1-9.453,9.464ZM43.895,34.864a8.165,8.165,0,0,0-8.151,8.161v66.551a8.165,8.165,0,0,0,8.151,8.161H195.536a8.167,8.167,0,0,0,8.152-8.161V43.025a8.167,8.167,0,0,0-8.152-8.161Z" fill="#3f3d56"/><path d="M342.528,183.136H190.887a9.469,9.469,0,0,1-9.453-9.465v-66.55a9.469,9.469,0,0,1,9.453-9.465H342.528a9.47,9.47,0,0,1,9.453,9.465v66.55a9.471,9.471,0,0,1-9.453,9.465ZM190.887,98.96a8.167,8.167,0,0,0-8.152,8.161v66.55a8.165,8.165,0,0,0,8.152,8.161H342.528a8.167,8.167,0,0,0,8.152-8.161v-66.55a8.167,8.167,0,0,0-8.152-8.161Z" fill="#3f3d56"/><path d="M437.2,275.616a4.232,4.232,0,0,1-4.215-3.959l-.628-9.6a4.235,4.235,0,0,1,3.945-4.5l75.1-4.924a9.045,9.045,0,0,1,1.181,18.052l-75.1,4.924C437.385,275.613,437.291,275.616,437.2,275.616Z" fill="#b9347d"/><path d="M452.008,276.853a4.237,4.237,0,0,1-4.226-4.078l-.535-14.335a4.233,4.233,0,0,1,4.069-4.391l61.76-2.311a4.233,4.233,0,0,1,4.385,4.075L518,270.148a4.233,4.233,0,0,1-4.069,4.391l-61.759,2.311Z" fill="#2f2e41"/><path d="M524.378,409h-9.606a4.237,4.237,0,0,1-4.231-4.235V324.6a4.237,4.237,0,0,1,4.231-4.236h9.606a4.239,4.239,0,0,1,4.231,4.236v80.165A4.239,4.239,0,0,1,524.378,409Z" fill="#2f2e41"/><path d="M505.378,409h-9.607a4.237,4.237,0,0,1-4.23-4.235V324.6a4.237,4.237,0,0,1,4.23-4.236h9.607a4.237,4.237,0,0,1,4.23,4.236v80.165a4.237,4.237,0,0,1-4.23,4.235Z" fill="#2f2e41"/><path d="M509.789,236.7a33.235,33.235,0,1,0-33.2-33.235A33.215,33.215,0,0,0,509.789,236.7Z" fill="#b9347d"/><path d="M495.186,218.106a7.862,7.862,0,0,1-3.272-.638,5.3,5.3,0,0,1-2.851-3.444,3.575,3.575,0,0,1,.584-3.115,4.606,4.606,0,0,1,4.125-1.508l-4.359-12.218,1.226-.438,5.124,14.364-1.155-.263c-1.34-.3-3.077-.237-3.934.865a2.291,2.291,0,0,0-.347,2,4.007,4.007,0,0,0,2.123,2.569c1.811.819,3.932.528,6.315.1l.232,1.282A21.33,21.33,0,0,1,495.186,218.106Z" fill="#2f2e41"/><path d="M483.4,199.581l-6.86,1.443.267,1.273,6.86-1.443Z" fill="#2f2e41"/><path d="M505.055,195.026l-6.861,1.443.267,1.273,6.861-1.443Z" fill="#2f2e41"/><path d="M408.609,278.146l37.419,20.578a1.749,1.749,0,0,0,.72.278,1.778,1.778,0,0,0,1.9-1.052l9.166-19.183a2.395,2.395,0,0,0-1.226-2.876l-31.067-16.032a1.811,1.811,0,0,0-2.377.455l-15.518,14.637a2.311,2.311,0,0,0,.883,3.142C408.542,278.111,408.575,278.129,408.609,278.146Z" fill="#3f3d56"/><path d="M411.106,275.312l35.08,20.075,9.335-16.845-30.094-16.385Z" fill="#fff"/><path d="M441.206,269.623a.523.523,0,1,0-.668-.115A.484.484,0,0,0,441.206,269.623Z" fill="#f2f2f2"/><path d="M428.073,286.725a.348.348,0,1,0-.446-.076A.323.323,0,0,0,428.073,286.725Z" fill="#f2f2f2"/><path d="M537.506,346.108H481.531a5.543,5.543,0,0,1-5.532-5.54L487.717,250.6a5.528,5.528,0,0,1,5.53-5.5h19.865a29.98,29.98,0,0,1,29.927,29.964v65.505a5.543,5.543,0,0,1-5.533,5.54Z" fill="#2f2e41"/><path d="M499.274,244.773l-15.139,33.235,2.6-27.917a5.261,5.261,0,0,1,5.207-5.318Z" fill="#ccc"/><path d="M450.1,308.543a4.242,4.242,0,0,1-3.867-2.5l-3.932-8.776a4.237,4.237,0,0,1,2.129-5.6l68.67-30.843a9.043,9.043,0,0,1,7.4,16.505l-68.67,30.844A4.2,4.2,0,0,1,450.1,308.543Z" fill="#b9347d"/><path d="M470.124,304.011a4.239,4.239,0,0,1-3.866-2.5l-6.716-14.99a4.242,4.242,0,0,1,2.128-5.6l56.389-25.327a4.228,4.228,0,0,1,5.591,2.131l6.716,14.99a4.238,4.238,0,0,1-2.128,5.6L471.85,303.64A4.211,4.211,0,0,1,470.124,304.011Z" fill="#2f2e41"/><path d="M502.423,182.631c-5.4-1.993-9.847,3.259-14.745,4.461-4.685,1.15-9.733-1.556-12.235-5.5-2.92-4.6-2.2-10.575.459-15.118,2.909-4.975,8.09-8.027,13.58-9.361,6.293-1.528,12.849-.777,19.06.776a79.207,79.207,0,0,1,17.211,6.2c4.953,2.567,9.648,6.078,12.542,10.941,2.631,4.42,3.933,9.921,2.631,14.985a15.778,15.778,0,0,1-4,6.925c-1.96,2.077-4.207,3.879-6.035,6.083-2.764,3.333-4.622,8.8-1.9,12.737a6.37,6.37,0,0,0,2.312,2.05c1.113.581,2.1-1.106.985-1.688-1.96-1.022-2.672-3.1-2.619-5.212a10.615,10.615,0,0,1,2.6-6.505c1.915-2.3,4.282-4.169,6.3-6.371a17.61,17.61,0,0,0,4.173-7.274c1.437-5.272.313-11.015-2.23-15.765-2.752-5.14-7.365-9.021-12.386-11.842a76.79,76.79,0,0,0-17.565-6.76c-6.469-1.753-13.262-2.741-19.919-1.527-5.77,1.051-11.41,3.84-15.039,8.56-3.387,4.405-5,10.409-3.367,15.83a14.481,14.481,0,0,0,10.867,9.809,12.419,12.419,0,0,0,7.559-.988c2.537-1.138,4.84-2.907,7.538-3.663a5.813,5.813,0,0,1,3.7.1c1.181.436,1.69-1.453.519-1.885Z" fill="#2f2e41"/><path d="M600.226,408.952H391.754a.776.776,0,0,1,0-1.552H600.226a.776.776,0,0,1,0,1.552Z" fill="#3f3d56"/></g></svg>