<svg xmlns="http://www.w3.org/2000/svg" xmlns:xlink="http://www.w3.org/1999/xlink" width="288.255" height="271" viewBox="0 0 288.255 271"><defs><clipPath id="a"><rect width="288.255" height="271" fill="#fff"/></clipPath></defs><g clip-path="url(#a)"><path d="M147.559,268.126c-1.4,0-2.817-.023-4.206-.066l.031-1.019c1.995.063,4.031.08,6.036.052l.014,1.02Q148.5,268.125,147.559,268.126Zm7.952-.237-.059-1.017c2-.119,4.022-.286,6.015-.5l.106,1.014c-2.009.212-4.048.381-6.062.5Zm-18.23-.158c-2.015-.156-4.051-.36-6.052-.608l.123-1.012c1.986.246,4.006.449,6,.6Zm30.323-1.122-.151-1.007c1.985-.3,3.986-.657,5.944-1.05l.2,1C171.62,265.947,169.6,266.3,167.6,266.609Zm-42.393-.372c-1.99-.341-4-.732-5.971-1.164l.214-1c1.957.429,3.951.818,5.926,1.155Zm54.32-2.02-.243-.99c1.949-.486,3.908-1.024,5.825-1.6l.287.978C183.469,263.186,181.494,263.727,179.531,264.217Zm-66.2-.584c-1.952-.525-3.917-1.1-5.84-1.715l.305-.971c1.908.608,3.857,1.18,5.795,1.7Zm77.861-2.907-.332-.962c1.891-.664,3.793-1.381,5.654-2.133l.375.947c-1.875.757-3.791,1.48-5.7,2.149Zm-89.471-.8c-1.9-.7-3.8-1.463-5.671-2.256l.392-.94c1.852.788,3.746,1.541,5.628,2.239Zm100.749-3.756-.419-.928c1.816-.833,3.642-1.722,5.426-2.642l.46.908C206.136,254.437,204.3,255.333,202.467,256.172Zm-111.98-1.016c-1.823-.877-3.652-1.809-5.437-2.772l.476-.9c1.772.955,3.587,1.881,5.4,2.751Zm122.787-4.56-.5-.885c1.742-1,3.48-2.057,5.167-3.134l.539.861C216.781,248.524,215.03,249.586,213.274,250.6ZM79.746,249.364c-1.734-1.041-3.47-2.139-5.16-3.262l.556-.851c1.677,1.115,3.4,2.2,5.12,3.237Zm143.793-5.322-.578-.835c1.64-1.156,3.276-2.367,4.864-3.6l.616.808C226.841,241.657,225.192,242.877,223.539,244.042ZM69.581,242.607c-1.63-1.2-3.259-2.447-4.841-3.722l.63-.8c1.57,1.265,3.186,2.508,4.8,3.693Zm163.593-6.039-.651-.779c1.529-1.3,3.05-2.658,4.522-4.032l.686.748C236.248,233.89,234.715,235.257,233.174,236.568Zm-173.1-1.623c-1.518-1.343-3.027-2.738-4.484-4.15l.7-.735c1.446,1.4,2.943,2.786,4.449,4.118ZM242.1,228.236l-.719-.716c1.409-1.441,2.8-2.933,4.142-4.433l.751.683c-1.35,1.511-2.754,3.014-4.174,4.466Zm-190.8-1.79c-1.393-1.479-2.769-3.007-4.089-4.542l.763-.668c1.31,1.523,2.676,3.04,4.058,4.507Zm198.943-7.33-.78-.648c1.273-1.563,2.526-3.176,3.726-4.8l.809.61C252.788,215.914,251.525,217.541,250.242,219.116ZM43.33,217.18c-1.251-1.595-2.483-3.242-3.661-4.9l.82-.6c1.17,1.64,2.392,3.275,3.634,4.859Zm214.2-7.9-.836-.573c1.127-1.674,2.23-3.4,3.279-5.122l.861.534C259.776,205.858,258.664,207.594,257.53,209.281Zm-221.3-2.054c-1.1-1.7-2.178-3.455-3.2-5.21l.87-.517c1.017,1.74,2.086,3.48,3.178,5.169ZM263.9,198.81l-.884-.492c.97-1.772,1.912-3.59,2.8-5.407l.906.452C265.828,195.193,264.878,197.026,263.9,198.81ZM30.069,196.667c-.942-1.8-1.855-3.641-2.715-5.48l.913-.435c.853,1.825,1.759,3.655,2.694,5.438ZM269.3,187.789l-.926-.409c.8-1.855,1.578-3.755,2.3-5.647l.943.365c-.725,1.907-1.505,3.821-2.315,5.691Zm-244.4-2.2c-.774-1.875-1.516-3.794-2.2-5.7l.95-.348c.683,1.9,1.418,3.8,2.187,5.66ZM273.664,176.3l-.959-.321c.63-1.917,1.225-3.876,1.768-5.824l.972.276c-.547,1.963-1.147,3.938-1.781,5.869ZM20.741,174.07c-.6-1.943-1.166-3.928-1.679-5.9l.977-.259c.509,1.957,1.069,3.927,1.666,5.855Zm256.215-9.581-.984-.231c.452-1.965.866-3.971,1.229-5.963l.993.184c-.365,2.008-.782,4.03-1.238,6.01ZM17.656,162.2c-.421-1.991-.8-4.019-1.133-6.03l1-.167c.328,1.995.706,4.009,1.124,5.984Zm261.5-9.778-1-.139c.272-2,.5-4.032.682-6.051l1.006.091c-.182,2.035-.413,4.087-.687,6.1ZM15.665,150.092c-.238-2.018-.434-4.074-.581-6.109l1.008-.075c.146,2.021.34,4.06.577,6.063ZM280.256,140.2l-1.01-.046c.09-2.02.136-4.069.136-6.089h1.01c0,2.036-.046,4.1-.136,6.135ZM14.778,137.853c-.035-1.25-.052-2.526-.052-3.79q0-1.178.02-2.349l1.01.018q-.02,1.163-.02,2.331c0,1.255.018,2.521.052,3.762Zm264.6-5.212c-.021-2.022-.088-4.07-.2-6.09l1.008-.057c.112,2.035.18,4.1.2,6.136Zm-263.38-7-1.008-.063c.126-2.037.3-4.1.517-6.116l1,.11C16.293,121.582,16.121,123.624,16,125.645ZM278.7,120.479c-.2-2.01-.452-4.043-.745-6.044l1-.149c.3,2.016.548,4.065.752,6.09ZM17.295,113.537l-1-.155c.309-2.017.669-4.05,1.069-6.043l.99.2C17.959,109.519,17.6,111.536,17.295,113.537Zm259.643-5.105c-.385-1.989-.82-3.991-1.292-5.95l.981-.241c.476,1.974.914,3.992,1.3,6ZM19.688,101.6l-.98-.248c.49-1.975,1.034-3.966,1.615-5.918l.967.293C20.713,97.666,20.174,99.641,19.688,101.6Zm254.4-5c-.563-1.941-1.178-3.894-1.829-5.8l.955-.332c.656,1.925,1.276,3.893,1.844,5.849ZM23.165,89.921l-.953-.338c.671-1.927,1.4-3.864,2.154-5.756l.937.382c-.752,1.877-1.472,3.8-2.138,5.711Zm247-4.84c-.737-1.876-1.526-3.759-2.346-5.6l.921-.419c.826,1.852,1.622,3.749,2.364,5.64ZM27.7,78.606l-.918-.426c.844-1.854,1.742-3.714,2.669-5.527l.9.467C29.427,74.92,28.536,76.765,27.7,78.606ZM265.217,74c-.9-1.8-1.862-3.6-2.847-5.36l.879-.5c.993,1.77,1.958,3.587,2.869,5.4ZM33.243,67.766l-.876-.509c1.008-1.766,2.07-3.534,3.159-5.254l.851.549c-1.08,1.707-2.135,3.461-3.134,5.214Zm226.039-4.351c-1.067-1.715-2.185-3.423-3.321-5.078l.829-.581c1.146,1.667,2.272,3.389,3.348,5.117ZM39.745,57.49l-.826-.587c1.165-1.667,2.382-3.328,3.62-4.938l.8.625C42.109,54.187,40.9,55.836,39.745,57.49Zm212.666-4.074c-1.217-1.609-2.485-3.209-3.769-4.754l.775-.655c1.293,1.558,2.571,3.169,3.8,4.791ZM47.146,47.861l-.769-.661c1.307-1.549,2.669-3.091,4.048-4.583l.738.7C49.794,44.793,48.443,46.323,47.146,47.861Zm197.517-3.776c-1.357-1.491-2.764-2.968-4.183-4.391l.712-.723c1.43,1.434,2.848,2.922,4.215,4.424ZM55.381,38.954l-.706-.729c1.444-1.426,2.939-2.836,4.442-4.191l.673.761c-1.492,1.344-2.975,2.743-4.409,4.159ZM236.1,35.5c-1.488-1.361-3.023-2.7-4.564-3.99l.644-.785c1.552,1.3,3.1,2.649,4.6,4.021ZM64.38,30.843l-.638-.791c1.562-1.284,3.177-2.55,4.8-3.764l.6.819C67.533,28.312,65.93,29.569,64.38,30.843ZM226.8,27.73c-1.6-1.219-3.255-2.416-4.907-3.556l.571-.841c1.664,1.149,3.327,2.354,4.944,3.583ZM74.068,23.6,73.5,22.75c1.672-1.135,3.394-2.247,5.117-3.305l.525.871C77.436,21.366,75.728,22.47,74.068,23.6Zm142.763-2.748c-1.707-1.066-3.46-2.106-5.21-3.09l.491-.891c1.764.992,3.53,2.039,5.251,3.113ZM84.366,17.275l-.485-.895c1.769-.977,3.583-1.925,5.391-2.817l.444.916c-1.794.886-3.594,1.826-5.35,2.8Zm121.908-2.362c-1.8-.9-3.638-1.777-5.472-2.6l.408-.932c1.848.824,3.7,1.7,5.515,2.615ZM95.185,11.934l-.4-.935c1.849-.809,3.74-1.584,5.62-2.305l.359.953c-1.867.715-3.743,1.485-5.578,2.287Zm100.03-1.955c-1.87-.732-3.784-1.43-5.69-2.076l.322-.967c1.919.65,3.848,1.354,5.733,2.092ZM106.453,7.615l-.315-.969c1.92-.635,3.878-1.233,5.821-1.777l.27.982c-1.928.54-3.872,1.133-5.776,1.764ZM183.76,6.1c-1.926-.554-3.891-1.071-5.84-1.534l.232-.992c1.964.467,3.944.987,5.885,1.546ZM118.08,4.358l-.225-.994c1.968-.454,3.973-.867,5.959-1.229l.179,1c-1.971.359-3.96.769-5.913,1.219ZM172.015,3.3c-1.967-.373-3.97-.7-5.955-.985l.14-1.01c2,.283,4.02.618,6,.993ZM129.956,2.2l-.134-1.011c2-.269,4.033-.5,6.044-.673l.088,1.016c-2,.176-4.014.4-6,.668Zm30.11-.585c-1.99-.189-4.015-.335-6.02-.433L154.1.159c2.02.1,4.061.246,6.066.436Zm-18.089-.474L141.935.118C143.791.04,145.683,0,147.559,0h.457l0,1.019h-.454c-1.861,0-3.74.04-5.582.117Z" fill="#e6e6e6"/><path d="M147.876,267.429V211.682a2.964,2.964,0,0,1,.856-2.082,2.91,2.91,0,0,1,2.063-.864h6.628a2.909,2.909,0,0,1,2.062.864,2.964,2.964,0,0,1,.856,2.082v55.747a2.964,2.964,0,0,1-.856,2.082,2.905,2.905,0,0,1-2.062.864h-6.628a2.906,2.906,0,0,1-2.063-.864A2.964,2.964,0,0,1,147.876,267.429Z" fill="#2f2e41"/><path d="M134.769,267.429V211.682a2.959,2.959,0,0,1,.855-2.082,2.912,2.912,0,0,1,2.063-.864h6.628a2.909,2.909,0,0,1,2.062.864,2.96,2.96,0,0,1,.856,2.082v55.747a2.96,2.96,0,0,1-.856,2.082,2.905,2.905,0,0,1-2.062.864h-6.628a2.908,2.908,0,0,1-2.063-.864A2.959,2.959,0,0,1,134.769,267.429Z" fill="#2f2e41"/><path d="M160.971,193.277H134.138A2.706,2.706,0,0,0,131.444,196v30.592a2.706,2.706,0,0,0,2.694,2.719h26.833a2.706,2.706,0,0,0,2.694-2.719V196A2.706,2.706,0,0,0,160.971,193.277Z" fill="#2f2e41"/><path d="M102.445,105.692s-13.542,6.349-25,10.56c-7.111-16.2-17.356-15.6-17.356-15.6l-6.211,4.316L55,111.447l-.306,10.585-1.629,5.549,2.338.426,1.321.242.2-.182a13.817,13.817,0,0,0-.4,4.035l58.751-9.248S113.237,113.3,102.445,105.692Z" fill="#e6e6e6"/><path d="M85.1,189.024l3.939,5.379a2.678,2.678,0,0,0,3.768.57l44.421-33.133a2.736,2.736,0,0,0,.566-3.8l-3.939-5.379a2.679,2.679,0,0,0-3.768-.571L85.661,185.221A2.736,2.736,0,0,0,85.1,189.024Z" fill="#b9347d"/><path d="M160.787,150.831l-5.854,3.135a2.731,2.731,0,0,0-1.117,3.677l25.892,49.242a2.682,2.682,0,0,0,3.643,1.128l5.854-3.136a2.732,2.732,0,0,0,1.117-3.676l-25.893-49.243A2.68,2.68,0,0,0,160.787,150.831Z" fill="#b9347d"/><path d="M177.2,172.685l-9.561,6.4a2.842,2.842,0,0,1-3.909-.985l-10.559-20.08a2.9,2.9,0,0,1,1.383-3.819l6.508-3.486a2.843,2.843,0,0,1,3.908.985l13.612,17.17A2.9,2.9,0,0,1,177.2,172.685Z" fill="#ccc"/><path d="M112.045,166.8l6.214,8.329a2.677,2.677,0,0,0,3.808.122l16.424-15.558a2.737,2.737,0,0,0,.12-3.844l-4.535-4.877a2.679,2.679,0,0,0-3.809-.121l-18.1,12.106a2.736,2.736,0,0,0-.12,3.843Z" fill="#ccc"/><path d="M162.612,150.028H132.5a2.706,2.706,0,0,0-2.694,2.719v64.567a2.707,2.707,0,0,0,2.694,2.719h30.113a2.707,2.707,0,0,0,2.694-2.719V152.747A2.706,2.706,0,0,0,162.612,150.028Z" fill="#ccc"/><path d="M147.379,145.814a24.254,24.254,0,1,0-24.031-24.253A24.143,24.143,0,0,0,147.379,145.814Z" fill="#b9347d"/><path d="M150.179,129.659a8.2,8.2,0,0,1-4.754-1.143A3.674,3.674,0,0,1,144.4,127.3a3.714,3.714,0,0,1-.416-1.537,2.489,2.489,0,0,1,.835-2.036,3.142,3.142,0,0,1,3-.435l-1.212-8.94.891-.123,1.424,10.509-.743-.344a2.7,2.7,0,0,0-2.778.025,1.6,1.6,0,0,0-.518,1.312,2.821,2.821,0,0,0,.313,1.144,2.777,2.777,0,0,0,.756.908,7.376,7.376,0,0,0,4.251.969Z" fill="#2f2e41"/><path d="M142.211,115.124h-4.837v.906h4.837Z" fill="#2f2e41"/><path d="M157.477,115.124h-4.836v.906h4.836Z" fill="#2f2e41"/><path d="M131.5,102.607c-3.9-.448-6.911-4.214-7.242-8.036-.4-4.546,2.229-8.864,5.828-11.415a24.722,24.722,0,0,1,12.99-4.027,35.491,35.491,0,0,1,24.4,8.118c3.4,2.85,6.574,6.48,7.778,10.865a10.591,10.591,0,0,1-2.84,10.789,7.164,7.164,0,0,1-2.575,1.437,7.089,7.089,0,0,1-2.93.273,13.615,13.615,0,0,1-6.408-2.876c-3.658-2.684-6.661-6.424-11.118-7.826-3.268-1.029-7.508-.123-9.505,2.859a5.461,5.461,0,0,0-.859,2.274.708.708,0,0,0,.072.512.7.7,0,0,0,.4.324.67.67,0,0,0,.511-.065.687.687,0,0,0,.318-.409c.524-3.757,5.1-5.159,8.312-4.3,4.683,1.251,7.826,5.468,11.668,8.148a14.115,14.115,0,0,0,6.8,2.737,8.387,8.387,0,0,0,5.929-1.838,11.7,11.7,0,0,0,3.811-11.165c-.84-4.691-3.968-8.711-7.4-11.823a36.821,36.821,0,0,0-25.3-9.433,27.482,27.482,0,0,0-13.792,3.632A15.21,15.21,0,0,0,122.913,92.7a10.732,10.732,0,0,0,5.72,10.445,8.892,8.892,0,0,0,2.87.818c.86.1.853-1.262,0-1.36Z" fill="#2f2e41"/><path d="M56.675,127.428l2.851-.925c.306-.591-.253-.212.013-.786,7.213-15.531.547-25.059.547-25.059l-5.157,3.583c-.013-.029-.023-.06-.036-.089,0,0-.916-2.056-2.342-.514a36.8,36.8,0,0,1-.509,24.663l5.8,2.672,2.24-2.672.051-.257-4.009-.368Z" fill="#ccc"/><path d="M137.979,185.129c-22.91-5.138-44.241,5.5-44.241,5.5l-.058-.053-8.495-7.655L51.991,128.25l8.095.051c22.5-13.565,54.168-11.715,54.168-11.715C127.9,132.206,137.979,185.129,137.979,185.129Z" fill="#3f3d56"/><path d="M93.68,190.575l-8.495-7.655L51.991,128.25l8.095.052S92.349,171.307,93.68,190.575Z" opacity="0.1"/><path d="M97.408,147.917c6.935-2.147,11.462-7.494,10.109-11.943s-8.07-6.316-15.005-4.169S81.05,139.3,82.4,143.749,90.473,150.064,97.408,147.917Z" fill="#b9347d"/><path d="M26.5,101.741c-1.829,6.824-8.095,11.051-8.095,11.051s-3.3-6.838-1.47-13.663,8.095-11.051,8.095-11.051S28.326,94.916,26.5,101.741Z" fill="#ccc"/><path d="M9.857,101.741c1.829,6.824,8.095,11.051,8.095,11.051s3.3-6.838,1.471-13.663-8.095-11.051-8.095-11.051S8.027,94.916,9.857,101.741Z" fill="#ccc"/><path d="M12.545,100.276c5.019,4.931,5.632,12.512,5.632,12.512s-7.525-.415-12.544-5.346S0,94.93,0,94.93,7.525,95.344,12.545,100.276Z" fill="#3f3d56"/><path d="M23.809,100.276c-5.019,4.931-5.632,12.512-5.632,12.512s7.525-.415,12.544-5.346S36.354,94.93,36.354,94.93,28.829,95.344,23.809,100.276Z" fill="#3f3d56"/><path d="M278.4,178.782c-1.829,6.825-8.094,11.051-8.094,11.051s-3.3-6.838-1.471-13.662,8.1-11.051,8.1-11.051S280.228,171.958,278.4,178.782Z" fill="#ccc"/><path d="M261.757,178.782c1.83,6.825,8.1,11.051,8.1,11.051s3.3-6.838,1.471-13.662-8.1-11.051-8.1-11.051S259.928,171.958,261.757,178.782Z" fill="#ccc"/><path d="M264.445,177.317c5.02,4.931,5.633,12.512,5.633,12.512s-7.525-.415-12.545-5.346-5.632-12.512-5.632-12.512S259.426,172.385,264.445,177.317Z" fill="#3f3d56"/><path d="M275.711,177.317c-5.02,4.931-5.633,12.512-5.633,12.512s7.525-.415,12.545-5.346,5.632-12.512,5.632-12.512S280.73,172.385,275.711,177.317Z" fill="#3f3d56"/><path d="M200.246,270.093H96.073V271H200.246Z" fill="#3f3d56"/></g></svg>