<svg xmlns="http://www.w3.org/2000/svg" width="390.784" height="318" viewBox="0 0 390.784 318"><path d="M387.235,192.339H69.489a3.532,3.532,0,0,1-2.508-1.053,3.621,3.621,0,0,1-1.04-2.539V3.591a3.618,3.618,0,0,1,1.04-2.538A3.531,3.531,0,0,1,69.489,0H387.235a3.53,3.53,0,0,1,2.508,1.053,3.619,3.619,0,0,1,1.041,2.538V188.747a3.622,3.622,0,0,1-1.041,2.539A3.531,3.531,0,0,1,387.235,192.339ZM69.489.8a2.746,2.746,0,0,0-1.95.819,2.813,2.813,0,0,0-.809,1.974V188.747a2.815,2.815,0,0,0,.809,1.975,2.749,2.749,0,0,0,1.95.819H387.235a2.748,2.748,0,0,0,1.951-.82,2.813,2.813,0,0,0,.809-1.974V3.591a2.816,2.816,0,0,0-.809-1.974A2.748,2.748,0,0,0,387.235.8Z" fill="#3f3d56"/><path d="M195.295,139.765H94.916a3.334,3.334,0,0,1-2.368-.995,3.417,3.417,0,0,1-.983-2.4V73.723a3.417,3.417,0,0,1,.983-2.4,3.334,3.334,0,0,1,2.368-.995H195.295a3.334,3.334,0,0,1,2.369.995,3.417,3.417,0,0,1,.982,2.4v62.65a3.417,3.417,0,0,1-.982,2.4A3.334,3.334,0,0,1,195.295,139.765Z" fill="#e6e6e6"/><path d="M77.715,10.869a2.793,2.793,0,1,0-2.76-2.793A2.777,2.777,0,0,0,77.715,10.869Z" fill="#b9347d"/><path d="M85.6,10.869a2.793,2.793,0,1,0-2.76-2.793A2.777,2.777,0,0,0,85.6,10.869Z" fill="#b9347d"/><path d="M93.484,10.869a2.793,2.793,0,1,0-2.76-2.793A2.777,2.777,0,0,0,93.484,10.869Z" fill="#b9347d"/><path d="M390.389,14.764H66.335v2H390.389Z" fill="#3f3d56"/><path d="M102.125,65.693a2.943,2.943,0,0,0-2.09.877,3.016,3.016,0,0,0-.867,2.115v62.649a3.016,3.016,0,0,0,.867,2.116,2.944,2.944,0,0,0,2.09.877h100.38a2.94,2.94,0,0,0,2.089-.877,3.009,3.009,0,0,0,.867-2.116V68.686a3.008,3.008,0,0,0-.867-2.115,2.939,2.939,0,0,0-2.089-.877Z" fill="#3f3d56"/><path d="M245.9,66.54a2.158,2.158,0,0,0-1.534.643,2.214,2.214,0,0,0,0,3.1,2.158,2.158,0,0,0,1.534.643H362.99a2.155,2.155,0,0,0,1.533-.643,2.214,2.214,0,0,0,0-3.1,2.155,2.155,0,0,0-1.533-.643Z" fill="#b9347d"/><path d="M245.9,80.507a2.158,2.158,0,0,0-1.534.643,2.214,2.214,0,0,0,0,3.1,2.158,2.158,0,0,0,1.534.643H362.99a2.155,2.155,0,0,0,1.533-.643,2.214,2.214,0,0,0,0-3.1,2.155,2.155,0,0,0-1.533-.643Z" fill="#b9347d"/><path d="M245.9,94.473a2.158,2.158,0,0,0-1.534.643,2.214,2.214,0,0,0,0,3.1,2.158,2.158,0,0,0,1.534.643H362.99a2.155,2.155,0,0,0,1.533-.643,2.214,2.214,0,0,0,0-3.1,2.155,2.155,0,0,0-1.533-.643Z" fill="#b9347d"/><path d="M245.9,108.439a2.156,2.156,0,0,0-1.534.643,2.213,2.213,0,0,0,0,3.1,2.156,2.156,0,0,0,1.534.643H362.99a2.154,2.154,0,0,0,1.533-.643,2.213,2.213,0,0,0,0-3.1,2.154,2.154,0,0,0-1.533-.643Z" fill="#e6e6e6"/><path d="M245.9,122.406a2.156,2.156,0,0,0-1.534.643,2.213,2.213,0,0,0,0,3.1,2.156,2.156,0,0,0,1.534.643H362.99a2.154,2.154,0,0,0,1.533-.643,2.213,2.213,0,0,0,0-3.1,2.154,2.154,0,0,0-1.533-.643Z" fill="#e6e6e6"/><path d="M245.9,136.373a2.156,2.156,0,0,0-1.534.643,2.213,2.213,0,0,0,0,3.1,2.156,2.156,0,0,0,1.534.643H362.99a2.154,2.154,0,0,0,1.533-.643,2.213,2.213,0,0,0,0-3.1,2.154,2.154,0,0,0-1.533-.643Z" fill="#e6e6e6"/><path d="M165.834,100.29,138.1,84.086v32.408l27.729-16.2L138.1,84.086v32.408Z" fill="#fff"/><path d="M146.039,315.436H0V318H146.039Z" fill="#3f3d56"/><path d="M57.224,208.168a3.452,3.452,0,0,1-1.67-.428,3.5,3.5,0,0,1-1.265-1.184l-4.305-6.732a3.573,3.573,0,0,1-.481-2.659,3.537,3.537,0,0,1,1.514-2.226l55.436-36.32a3.458,3.458,0,0,1,2.626-.487,3.5,3.5,0,0,1,2.2,1.533l4.305,6.733a3.563,3.563,0,0,1-.057,3.924,3.512,3.512,0,0,1-.976.96L59.114,207.6A3.439,3.439,0,0,1,57.224,208.168Z" fill="#b9347d"/><path d="M58.952,207.154l23.174-13.1a3.253,3.253,0,0,0,1.507-1.884,3.3,3.3,0,0,0-.194-2.415l-5.368-10.918a3.254,3.254,0,0,0-.89-1.108,3.192,3.192,0,0,0-3.961-.021L51.143,194.946a3.29,3.29,0,0,0-.955,4.507l4.306,6.734a3.2,3.2,0,0,0,4.458.967Z" fill="#ccc"/><path d="M56.7,165.072a29.083,29.083,0,1,0-28.729-29.081A28.907,28.907,0,0,0,56.7,165.072Z" fill="#b9347d"/><path d="M52.169,317.12H44.246a3.477,3.477,0,0,1-2.466-1.036,3.558,3.558,0,0,1-1.023-2.5V246.746a3.559,3.559,0,0,1,1.023-2.5,3.472,3.472,0,0,1,2.466-1.035h7.923a3.472,3.472,0,0,1,2.466,1.035,3.558,3.558,0,0,1,1.023,2.5v66.842a3.558,3.558,0,0,1-1.023,2.5A3.477,3.477,0,0,1,52.169,317.12Z" fill="#2f2e41"/><path d="M67.842,317.12H59.919a3.477,3.477,0,0,1-2.466-1.036,3.558,3.558,0,0,1-1.023-2.5V246.746a3.559,3.559,0,0,1,1.023-2.5,3.472,3.472,0,0,1,2.466-1.035h7.923a3.472,3.472,0,0,1,2.466,1.035,3.558,3.558,0,0,1,1.023,2.5v66.842a3.558,3.558,0,0,1-1.023,2.5A3.477,3.477,0,0,1,67.842,317.12Z" fill="#2f2e41"/><path d="M74.371,254.332h-36a3.473,3.473,0,0,1-2.466-1.036,3.558,3.558,0,0,1-1.023-2.5V189.346a19.637,19.637,0,0,1,5.647-13.778,19.158,19.158,0,0,1,13.612-5.716h20.23a3.472,3.472,0,0,1,2.466,1.035,3.558,3.558,0,0,1,1.023,2.5V250.8a3.558,3.558,0,0,1-1.023,2.5A3.473,3.473,0,0,1,74.371,254.332Z" fill="#ccc"/><path d="M81.774,144.071l-.03-1.087c2-.056,3.758-.183,5.081-1.162a3.324,3.324,0,0,0,.9-1.089,3.369,3.369,0,0,0,.374-1.371,1.921,1.921,0,0,0-.619-1.573c-.878-.751-2.291-.508-3.322-.03l-.888.413,1.7-12.6,1.064.147-1.449,10.719a3.752,3.752,0,0,1,3.585.522,2.991,2.991,0,0,1,1,2.441,4.46,4.46,0,0,1-.5,1.843,4.4,4.4,0,0,1-1.22,1.457C85.759,143.958,83.549,144.02,81.774,144.071Z" fill="#2f2e41"/><path d="M78.835,126.643H73.052v1.086h5.782Z" fill="#2f2e41"/><path d="M89.939,249.538a3.472,3.472,0,0,1-1.8-.507,3.526,3.526,0,0,1-1.286-1.372L55.9,188.616a3.573,3.573,0,0,1-.252-2.69,3.528,3.528,0,0,1,1.7-2.085l7-3.759A3.458,3.458,0,0,1,67,179.826a3.506,3.506,0,0,1,2.06,1.72l30.954,59.043a3.568,3.568,0,0,1,.252,2.69,3.526,3.526,0,0,1-1.7,2.085l-7,3.76A3.444,3.444,0,0,1,89.939,249.538Z" fill="#b9347d"/><path d="M53.669,188.492l13.572,24.5a3.236,3.236,0,0,0,1.723,1.682,3.184,3.184,0,0,0,2.394.014l11.21-4.47a3.225,3.225,0,0,0,1.167-.8,3.292,3.292,0,0,0,.363-3.993L69.043,180.586a3.236,3.236,0,0,0-1.9-1.587,3.186,3.186,0,0,0-2.453.234l-9.684,4.847a3.257,3.257,0,0,0-1.57,1.926A3.3,3.3,0,0,0,53.669,188.492Z" fill="#ccc"/><path d="M73.752,114.73a10.056,10.056,0,0,0,7.9-5.757A11.916,11.916,0,0,0,81.7,98.618a16.476,16.476,0,0,0-7.724-7.72,26.211,26.211,0,0,0-12.646-2.275c-8.117.332-17.06,2.639-22.05,9.645a15.264,15.264,0,0,0-2.84,11.092c.631,4.126,3.112,7.7,5.761,10.779,2.776,3.228,5.979,6.135,8.174,9.833,1.9,3.2,2.92,7.229,1.65,10.859a7.847,7.847,0,0,1-1.328,2.365c-.657.8.477,1.961,1.139,1.153A11.732,11.732,0,0,0,53.86,134.4c-.792-3.823-3.077-7.054-5.575-9.941-4.861-5.618-12.1-11.752-10.058-20.145A16.173,16.173,0,0,1,44.4,95.31,26.433,26.433,0,0,1,55.428,90.9c7.5-1.363,16.587-1.221,22.255,4.7a11.833,11.833,0,0,1,3.542,9.382,9.67,9.67,0,0,1-5.275,7.541,6.969,6.969,0,0,1-2.2.581c-1.023.1-1.033,1.727,0,1.63Z" fill="#2f2e41"/></svg>