<svg width="32" height="32" viewBox="0 0 32 32" fill="none" xmlns="http://www.w3.org/2000/svg">
<path d="M17.6697 0.597401C17.6101 0.614318 17.4695 0.631234 17.3587 0.635464C16.9156 0.643923 15.4841 1.00341 14.9643 1.23179C14.9175 1.25293 14.7854 1.30791 14.6661 1.35444C14.3551 1.47285 13.5328 1.86195 13.405 1.95499C13.3453 1.99305 13.2473 2.0438 13.1834 2.05649C13.1195 2.07341 13.0684 2.10301 13.0684 2.11993C13.0684 2.13685 13.0343 2.16222 12.996 2.17914C12.9534 2.19183 12.8639 2.24258 12.7915 2.2891C12.7233 2.33562 12.6211 2.3906 12.5657 2.41598C12.5103 2.43712 12.4038 2.50479 12.3271 2.564C12.2504 2.62321 12.1737 2.66973 12.1609 2.66973C12.0629 2.66973 10.6911 3.65938 10.3034 4.00618C9.98807 4.28953 9.40439 4.90701 9.40439 4.95776C9.40439 4.97044 9.36604 5.02965 9.31492 5.08463C9.1871 5.22843 8.80366 5.82898 8.69289 6.05313C8.64602 6.15886 8.55229 6.34495 8.49265 6.47183C8.28388 6.89475 8.19867 7.35574 8.21998 7.89285C8.24554 8.42151 8.36483 8.69641 8.72697 9.06013C9.10616 9.43653 9.5109 9.60147 10.15 9.6353C10.5888 9.65645 10.9041 9.62262 11.3429 9.49997C11.4835 9.46191 11.671 9.41538 11.7604 9.39001C11.8499 9.36886 11.9522 9.33503 11.9948 9.30965C12.0928 9.2589 12.6424 9.01361 12.6679 9.01361C12.7446 9.01361 13.6436 8.46803 14.4744 7.91823C15.024 7.55451 15.5054 7.23732 15.548 7.21617C15.5863 7.1908 15.8462 7.03855 16.1232 6.87361C16.4001 6.71289 16.7409 6.51835 16.8815 6.44645C17.0221 6.37455 17.2224 6.26882 17.3289 6.21384C17.4354 6.16309 17.6356 6.07005 17.7762 6.0193C17.9168 5.96432 18.0915 5.89242 18.1597 5.86281C18.2321 5.83321 18.3344 5.78669 18.394 5.76131C18.5602 5.69365 18.9351 5.62598 19.3015 5.6006C20.0939 5.54985 20.6478 5.89665 20.9332 6.62408C21.0014 6.79748 21.0142 6.94127 21.0142 7.44878C21.0142 8.06625 20.9588 8.40459 20.7927 8.80214C20.7586 8.8825 20.7117 8.99669 20.6861 9.0559C20.4731 9.56341 20.0343 10.2908 19.5316 10.9506C19.0544 11.585 18.0276 12.6381 17.3502 13.1921C17.1159 13.3866 16.856 13.5981 16.775 13.6658C16.5961 13.8138 16.3873 13.9618 16.1573 14.1141C16.0635 14.1733 15.9101 14.2748 15.8164 14.3425C15.5523 14.5201 14.8493 14.8923 14.4531 15.0614C14.338 15.1122 14.1804 15.1798 14.1037 15.2137C14.0313 15.2475 13.9333 15.2729 13.8864 15.2729C13.8438 15.2729 13.7458 15.294 13.6691 15.3194C13.3922 15.4167 13.111 15.2306 13.111 14.9472C13.111 14.6004 13.2772 14.3805 14.3252 13.3486C15.4585 12.2321 15.5821 12.0671 15.5821 11.6442C15.5821 11.2086 15.3733 10.9125 14.9047 10.6757C14.7002 10.57 14.6235 10.5573 14.2656 10.5573C13.8481 10.5573 13.6052 10.6165 13.3027 10.7983C13.2346 10.8406 13.128 10.8956 13.0684 10.9252C13.0088 10.9548 12.9534 10.9887 12.9406 11.0014C12.9278 11.014 12.8426 11.0775 12.7489 11.1494C12.5231 11.3185 12.1268 11.7203 11.901 12.0121C11.7434 12.2151 11.6284 12.4055 11.3599 12.9045C11.1384 13.319 10.9382 14.0887 10.9382 14.537C10.9382 15.4463 11.4153 16.1737 12.1524 16.381C12.3739 16.4444 13.2772 16.4444 13.5882 16.3852C13.8949 16.3217 14.6959 16.0764 14.747 16.0299C14.7726 16.0088 14.8152 15.9919 14.8493 15.9919C14.9601 15.9919 16.2254 15.3532 16.66 15.0741C16.758 15.0107 16.8688 14.9388 16.9114 14.9134C16.9497 14.8923 17.1499 14.7696 17.3587 14.6427C17.5632 14.5159 17.7421 14.3974 17.7549 14.3848C17.7677 14.3678 17.9126 14.2621 18.0745 14.1521C18.2406 14.038 18.4323 13.9068 18.5005 13.8603C18.5729 13.8096 18.7732 13.6573 18.9479 13.5178C20.0556 12.6423 21.0355 11.7076 21.6064 10.9802C21.7001 10.866 21.7853 10.7603 21.7981 10.7476C21.8322 10.7222 22.1219 10.3078 22.3222 9.99479C22.4116 9.86368 22.548 9.63108 22.6247 9.47882C22.7056 9.32657 22.8164 9.11934 22.8718 9.01361C22.9272 8.90787 23.0464 8.63297 23.1402 8.40036C23.2296 8.16776 23.3191 7.93938 23.3362 7.89285C23.4555 7.59258 23.6387 6.81863 23.7196 6.26459C23.8091 5.63867 23.7409 4.61096 23.5662 4.04424C23.4938 3.81163 23.4768 3.76934 23.3191 3.431C22.9783 2.70357 22.4329 2.0438 21.8066 1.61242C21.7214 1.55321 21.6149 1.47285 21.5681 1.42633C21.4147 1.291 20.635 0.944199 20.1791 0.813092C19.9363 0.741195 19.5742 0.665069 19.3739 0.635464C18.9138 0.576255 17.8103 0.54665 17.6697 0.597401Z" fill="#FF0000"/>
<path d="M30.0208 21.5106C30.008 21.519 29.8121 21.5571 29.5777 21.5952C29.3434 21.629 28.96 21.6924 28.7256 21.7347L28.2996 21.8066V25.6975C28.2996 29.9225 28.2911 29.7449 28.5424 30.2736C28.6277 30.4554 28.7469 30.6119 28.9301 30.7768C29.3818 31.1871 29.8035 31.314 30.7025 31.3182C31.4694 31.3182 31.4396 31.3478 31.4225 30.6457L31.4097 30.1382L31.0817 30.1086C30.498 30.0579 30.2168 29.8253 30.1529 29.3431C30.1359 29.1993 30.1231 27.3892 30.1273 25.3253C30.1316 21.7516 30.1231 21.4091 30.0208 21.5106Z" fill="#FF0000"/>
<path d="M18.2235 21.5947C17.2777 21.7342 16.9624 21.7934 16.9241 21.84C16.8943 21.8738 16.89 23.2229 16.9028 25.8028C16.9241 29.4061 16.9326 29.7317 17.0008 29.9051C17.1627 30.3154 17.2479 30.4592 17.4652 30.6749C17.9125 31.1189 18.4834 31.3008 19.4207 31.3008C19.9405 31.3008 20.0129 31.2923 20.047 31.2247C20.0896 31.1443 20.1109 30.4084 20.0768 30.2392C20.0513 30.1335 20.0342 30.1293 19.7147 30.1039C19.31 30.0785 19.0714 29.9432 18.9052 29.6514L18.7987 29.4611L18.7859 27.2703C18.7774 25.6378 18.7859 25.0626 18.8243 25.0161C18.8626 24.9696 19.0075 24.9569 19.4633 24.9569C20.1663 24.9569 20.1067 25.0246 20.0896 24.2168L20.0768 23.667L19.4804 23.6459C19.1523 23.6332 18.8583 23.6078 18.8328 23.5909C18.7902 23.5655 18.7774 23.3075 18.7774 22.542V21.5312L18.6837 21.5355C18.6283 21.5397 18.4238 21.5651 18.2235 21.5947Z" fill="#FF0000"/>
<path d="M3.4613 23.5037C3.14177 23.5333 2.37488 23.7152 2.14056 23.8167C2.09369 23.8378 2.00848 23.8674 1.94883 23.8843C1.76137 23.9351 1.13934 24.2438 1.13934 24.2861C1.13934 24.3073 1.17769 24.4045 1.22029 24.506C1.50148 25.1193 1.608 25.3392 1.6293 25.3392C1.64208 25.3392 1.68468 25.3223 1.72729 25.3011C1.94457 25.1912 2.20872 25.0854 2.41749 25.022C2.5453 24.9839 2.69868 24.9332 2.75832 24.912C2.99691 24.8275 3.63172 24.7852 3.9257 24.8317C4.50512 24.9247 4.71815 25.1912 4.75223 25.8721C4.76927 26.2485 4.76927 26.2569 4.67128 26.2823C4.61589 26.2992 4.22393 26.3119 3.80214 26.3119C2.78815 26.3119 2.47713 26.3711 1.82102 26.6883C1.25864 26.959 0.841109 27.4707 0.640867 28.1305C0.538615 28.4815 0.551397 29.1371 0.66643 29.4839C1.04987 30.6342 1.96162 31.3067 3.23124 31.3743C4.38583 31.4378 5.5745 31.0952 6.33713 30.4862L6.61406 30.262L6.62684 28.0248C6.63962 25.4322 6.63536 25.3434 6.32009 24.709C6.17949 24.4214 5.70658 23.9647 5.4126 23.8378C5.27627 23.7744 5.12715 23.7109 5.08029 23.6898C4.76075 23.5502 3.95126 23.4572 3.4613 23.5037ZM4.71815 27.5807C4.74371 27.6145 4.76075 28.1178 4.76075 28.7268C4.76075 29.9279 4.77779 29.8518 4.46252 30.0167C4.34322 30.0802 4.21115 30.0929 3.79788 30.0971H3.28236L3.06934 29.9533C2.95431 29.8772 2.81797 29.7503 2.77111 29.6784C2.45583 29.2216 2.47713 28.4054 2.80945 28.0036C2.90744 27.881 3.28236 27.623 3.35053 27.623C3.39314 27.623 3.44 27.6061 3.46556 27.5849C3.52521 27.5215 3.72119 27.5046 4.21967 27.513C4.57755 27.5173 4.68832 27.5299 4.71815 27.5807Z" fill="#FF0000"/>
<path d="M14.0912 23.6034C13.2434 23.8021 12.5659 24.1616 11.8843 24.7791L11.7053 24.9398V28.0272C11.7053 29.7231 11.7053 31.1441 11.7053 31.1864C11.7053 31.2541 11.7692 31.2583 12.6341 31.2498L13.5586 31.2372L13.5714 28.2894L13.5799 25.3458L13.7418 25.2189C13.9336 25.0667 14.0273 25.0202 14.2744 24.9356C14.5684 24.8383 15.0285 24.7918 15.3736 24.8298C15.544 24.8468 15.7059 24.8552 15.7315 24.8425C15.7613 24.8341 15.838 24.6903 15.9062 24.5211C15.9701 24.3519 16.0723 24.132 16.1234 24.0305C16.264 23.7641 16.2513 23.6964 16.0638 23.6541C15.9743 23.633 15.8124 23.5949 15.6974 23.5695C15.3949 23.4934 14.4704 23.5145 14.0912 23.6034Z" fill="#FF0000"/>
<path d="M23.3576 23.6132C23.217 23.6343 23.0849 23.6724 23.0636 23.6935C23.038 23.7147 22.9954 23.7316 22.9613 23.7316C22.9273 23.7316 22.7739 23.7908 22.6248 23.8669C22.2967 24.0277 21.794 24.4886 21.5809 24.8312C21.3935 25.1315 21.1762 25.5798 21.1421 25.7405C21.1251 25.8082 21.0995 25.9054 21.0782 25.952C21.0612 25.9985 21.01 26.1803 20.9674 26.3537C20.8524 26.8105 20.8524 28.2738 20.9632 28.701C21.0654 29.0943 21.2955 29.6948 21.3381 29.6948C21.3594 29.6948 21.3764 29.716 21.3764 29.7414C21.3764 29.9021 21.8834 30.5407 22.2413 30.8283C22.399 30.9552 22.7526 31.137 23.0167 31.2258C23.3022 31.3231 23.9327 31.4288 24.2139 31.4288C24.8189 31.4288 25.9096 31.1708 26.2717 30.9425C26.357 30.8917 26.472 30.8325 26.5316 30.8156C26.6594 30.7775 26.9406 30.6041 26.9747 30.5449C27.0131 30.4857 26.5359 29.5257 26.472 29.5257C26.4422 29.5257 26.3655 29.5637 26.3058 29.6103C26.2462 29.6568 26.1737 29.6948 26.1397 29.6948C26.1098 29.6948 26.0459 29.7202 25.9991 29.7541C25.9522 29.7837 25.7307 29.8725 25.5091 29.9486C25.1299 30.0797 25.066 30.0882 24.5079 30.0924C23.9796 30.0924 23.8901 30.0839 23.7197 30.0036C23.1232 29.7202 22.7824 29.0055 22.7824 28.0412C22.7824 27.834 22.7867 27.6606 22.7952 27.6563C22.7994 27.6479 23.7453 27.6352 24.8913 27.6225L26.979 27.6014L26.9662 27.1784C26.9406 26.3495 26.7191 25.233 26.5274 24.9792C26.5103 24.9539 26.4507 24.8481 26.3953 24.7424C26.1652 24.2899 25.6795 23.9008 25.1044 23.7105C24.6826 23.5667 23.9114 23.5244 23.3576 23.6132ZM24.2736 24.9581C24.4525 25.0046 24.8274 25.3049 24.8274 25.3979C24.8274 25.4233 24.8573 25.4994 24.8913 25.5629C24.9893 25.7532 25.066 26.3791 24.9979 26.4595C24.9552 26.5145 24.7891 26.5229 23.9285 26.5229H22.9102L22.8847 26.4172C22.8293 26.2015 22.9784 25.6221 23.1488 25.3979C23.3363 25.1484 23.5024 25.0215 23.7495 24.9496C23.8859 24.9116 24.0179 24.8862 24.0478 24.8947C24.0733 24.9031 24.1756 24.9327 24.2736 24.9581Z" fill="#FF0000"/>
<path d="M8.68027 20.6365C8.35648 20.8014 8.25849 20.8818 8.11789 21.089C7.98156 21.2962 7.97729 21.3131 7.97729 21.7445V22.1928L8.13919 22.4127C8.33092 22.6707 8.45873 22.7638 8.73992 22.861C9.1191 22.9837 9.44716 22.9372 9.82635 22.7003C10.2822 22.4127 10.4399 21.6769 10.1629 21.1355C10.0649 20.9452 9.97972 20.8564 9.72409 20.6957C9.49403 20.5476 8.91034 20.5138 8.68027 20.6365Z" fill="#FF0000"/>
<path d="M9.72424 23.6884C9.65608 23.7096 9.46435 23.7477 9.29819 23.7688C9.1363 23.79 8.83806 23.8322 8.63782 23.8618C8.43758 23.8872 8.2629 23.9253 8.24159 23.938C8.20325 23.9718 8.19899 31.1573 8.23307 31.2207C8.25011 31.2419 8.6293 31.2588 9.12777 31.2588C9.99691 31.2588 10.0012 31.2588 10.0225 31.1615C10.0353 31.1108 10.0395 29.4022 10.0353 27.3679C10.0225 23.7011 10.0225 23.6673 9.93727 23.6588C9.8904 23.6546 9.79667 23.6673 9.72424 23.6884Z" fill="#FF0000"/>
</svg>
