<svg xmlns="http://www.w3.org/2000/svg" width="168" height="227" viewBox="0 0 168 227">
  <g id="Group_43" data-name="Group 43" transform="translate(-413 -183)">
    <g id="Group_40" data-name="Group 40">
      <g id="Group_38" data-name="Group 38">
        <g id="Group_35" data-name="Group 35">
          <rect id="Rectangle_12" data-name="Rectangle 12" width="4" height="10" rx="2" transform="translate(442 195)" fill="#cacaca"/>
          <rect id="Rectangle_13" data-name="Rectangle 13" width="4" height="10" rx="2" transform="translate(432 183)" fill="#cacaca"/>
          <rect id="Rectangle_14" data-name="Rectangle 14" width="4" height="10" rx="2" transform="translate(451 183)" fill="#cacaca"/>
          <rect id="Rectangle_15" data-name="Rectangle 15" width="4" height="10" rx="2" transform="translate(423 195)" fill="#cacaca"/>
          <rect id="Rectangle_16" data-name="Rectangle 16" width="4" height="10" rx="2" transform="translate(413 183)" fill="#cacaca"/>
          <rect id="Rectangle_17" data-name="Rectangle 17" width="4" height="10" rx="2" transform="translate(461 195)" fill="#cacaca"/>
          <rect id="Rectangle_18" data-name="Rectangle 18" width="4" height="10" rx="2" transform="translate(451 208)" fill="#cacaca"/>
          <rect id="Rectangle_19" data-name="Rectangle 19" width="4" height="10" rx="2" transform="translate(432 208)" fill="#cacaca"/>
          <rect id="Rectangle_20" data-name="Rectangle 20" width="4" height="10" rx="2" transform="translate(413 208)" fill="#cacaca"/>
        </g>
        <g id="Group_36" data-name="Group 36" transform="translate(58)">
          <rect id="Rectangle_12-2" data-name="Rectangle 12" width="4" height="10" rx="2" transform="translate(442 195)" fill="#cacaca"/>
          <rect id="Rectangle_13-2" data-name="Rectangle 13" width="4" height="10" rx="2" transform="translate(432 183)" fill="#cacaca"/>
          <rect id="Rectangle_14-2" data-name="Rectangle 14" width="4" height="10" rx="2" transform="translate(451 183)" fill="#cacaca"/>
          <rect id="Rectangle_15-2" data-name="Rectangle 15" width="4" height="10" rx="2" transform="translate(423 195)" fill="#cacaca"/>
          <rect id="Rectangle_16-2" data-name="Rectangle 16" width="4" height="10" rx="2" transform="translate(413 183)" fill="#cacaca"/>
          <rect id="Rectangle_17-2" data-name="Rectangle 17" width="4" height="10" rx="2" transform="translate(461 195)" fill="#cacaca"/>
          <rect id="Rectangle_18-2" data-name="Rectangle 18" width="4" height="10" rx="2" transform="translate(451 208)" fill="#cacaca"/>
          <rect id="Rectangle_19-2" data-name="Rectangle 19" width="4" height="10" rx="2" transform="translate(432 208)" fill="#cacaca"/>
          <rect id="Rectangle_20-2" data-name="Rectangle 20" width="4" height="10" rx="2" transform="translate(413 208)" fill="#cacaca"/>
        </g>
        <g id="Group_37" data-name="Group 37" transform="translate(116)">
          <rect id="Rectangle_12-3" data-name="Rectangle 12" width="4" height="10" rx="2" transform="translate(442 195)" fill="#cacaca"/>
          <rect id="Rectangle_13-3" data-name="Rectangle 13" width="4" height="10" rx="2" transform="translate(432 183)" fill="#cacaca"/>
          <rect id="Rectangle_14-3" data-name="Rectangle 14" width="4" height="10" rx="2" transform="translate(451 183)" fill="#cacaca"/>
          <rect id="Rectangle_15-3" data-name="Rectangle 15" width="4" height="10" rx="2" transform="translate(423 195)" fill="#cacaca"/>
          <rect id="Rectangle_16-3" data-name="Rectangle 16" width="4" height="10" rx="2" transform="translate(413 183)" fill="#cacaca"/>
          <rect id="Rectangle_17-3" data-name="Rectangle 17" width="4" height="10" rx="2" transform="translate(461 195)" fill="#cacaca"/>
          <rect id="Rectangle_18-3" data-name="Rectangle 18" width="4" height="10" rx="2" transform="translate(451 208)" fill="#cacaca"/>
          <rect id="Rectangle_19-3" data-name="Rectangle 19" width="4" height="10" rx="2" transform="translate(432 208)" fill="#cacaca"/>
          <rect id="Rectangle_20-3" data-name="Rectangle 20" width="4" height="10" rx="2" transform="translate(413 208)" fill="#cacaca"/>
        </g>
      </g>
      <g id="Group_39" data-name="Group 39" transform="translate(9 38)">
        <g id="Group_35-2" data-name="Group 35">
          <rect id="Rectangle_12-4" data-name="Rectangle 12" width="4" height="10" rx="2" transform="translate(442 195)" fill="#cacaca"/>
          <rect id="Rectangle_13-4" data-name="Rectangle 13" width="4" height="10" rx="2" transform="translate(432 183)" fill="#cacaca"/>
          <rect id="Rectangle_14-4" data-name="Rectangle 14" width="4" height="10" rx="2" transform="translate(451 183)" fill="#cacaca"/>
          <rect id="Rectangle_15-4" data-name="Rectangle 15" width="4" height="10" rx="2" transform="translate(423 195)" fill="#cacaca"/>
          <rect id="Rectangle_16-4" data-name="Rectangle 16" width="4" height="10" rx="2" transform="translate(413 183)" fill="#cacaca"/>
          <rect id="Rectangle_17-4" data-name="Rectangle 17" width="4" height="10" rx="2" transform="translate(461 195)" fill="#cacaca"/>
          <rect id="Rectangle_18-4" data-name="Rectangle 18" width="4" height="10" rx="2" transform="translate(451 208)" fill="#cacaca"/>
          <rect id="Rectangle_19-4" data-name="Rectangle 19" width="4" height="10" rx="2" transform="translate(432 208)" fill="#cacaca"/>
          <rect id="Rectangle_20-4" data-name="Rectangle 20" width="4" height="10" rx="2" transform="translate(413 208)" fill="#cacaca"/>
        </g>
        <g id="Group_36-2" data-name="Group 36" transform="translate(58)">
          <rect id="Rectangle_12-5" data-name="Rectangle 12" width="4" height="10" rx="2" transform="translate(442 195)" fill="#cacaca"/>
          <rect id="Rectangle_13-5" data-name="Rectangle 13" width="4" height="10" rx="2" transform="translate(432 183)" fill="#cacaca"/>
          <rect id="Rectangle_14-5" data-name="Rectangle 14" width="4" height="10" rx="2" transform="translate(451 183)" fill="#cacaca"/>
          <rect id="Rectangle_15-5" data-name="Rectangle 15" width="4" height="10" rx="2" transform="translate(423 195)" fill="#cacaca"/>
          <rect id="Rectangle_16-5" data-name="Rectangle 16" width="4" height="10" rx="2" transform="translate(413 183)" fill="#cacaca"/>
          <rect id="Rectangle_17-5" data-name="Rectangle 17" width="4" height="10" rx="2" transform="translate(461 195)" fill="#cacaca"/>
          <rect id="Rectangle_18-5" data-name="Rectangle 18" width="4" height="10" rx="2" transform="translate(451 208)" fill="#cacaca"/>
          <rect id="Rectangle_19-5" data-name="Rectangle 19" width="4" height="10" rx="2" transform="translate(432 208)" fill="#cacaca"/>
          <rect id="Rectangle_20-5" data-name="Rectangle 20" width="4" height="10" rx="2" transform="translate(413 208)" fill="#cacaca"/>
        </g>
        <g id="Group_37-2" data-name="Group 37" transform="translate(116)">
          <rect id="Rectangle_12-6" data-name="Rectangle 12" width="4" height="10" rx="2" transform="translate(442 195)" fill="#cacaca"/>
          <rect id="Rectangle_13-6" data-name="Rectangle 13" width="4" height="10" rx="2" transform="translate(432 183)" fill="#cacaca"/>
          <rect id="Rectangle_14-6" data-name="Rectangle 14" width="4" height="10" rx="2" transform="translate(451 183)" fill="#cacaca"/>
          <rect id="Rectangle_15-6" data-name="Rectangle 15" width="4" height="10" rx="2" transform="translate(423 195)" fill="#cacaca"/>
          <rect id="Rectangle_16-6" data-name="Rectangle 16" width="4" height="10" rx="2" transform="translate(413 183)" fill="#cacaca"/>
          <rect id="Rectangle_18-6" data-name="Rectangle 18" width="4" height="10" rx="2" transform="translate(451 208)" fill="#cacaca"/>
          <rect id="Rectangle_19-6" data-name="Rectangle 19" width="4" height="10" rx="2" transform="translate(432 208)" fill="#cacaca"/>
          <rect id="Rectangle_20-6" data-name="Rectangle 20" width="4" height="10" rx="2" transform="translate(413 208)" fill="#cacaca"/>
          <rect id="Rectangle_21" data-name="Rectangle 21" width="4" height="10" rx="2" transform="translate(288 196)" fill="#cacaca"/>
        </g>
      </g>
    </g>
    <g id="Group_41" data-name="Group 41" transform="translate(0 77)">
      <g id="Group_38-2" data-name="Group 38">
        <g id="Group_35-3" data-name="Group 35">
          <rect id="Rectangle_12-7" data-name="Rectangle 12" width="4" height="10" rx="2" transform="translate(442 195)" fill="#cacaca"/>
          <rect id="Rectangle_13-7" data-name="Rectangle 13" width="4" height="10" rx="2" transform="translate(432 183)" fill="#cacaca"/>
          <rect id="Rectangle_14-7" data-name="Rectangle 14" width="4" height="10" rx="2" transform="translate(451 183)" fill="#cacaca"/>
          <rect id="Rectangle_15-7" data-name="Rectangle 15" width="4" height="10" rx="2" transform="translate(423 195)" fill="#cacaca"/>
          <rect id="Rectangle_16-7" data-name="Rectangle 16" width="4" height="10" rx="2" transform="translate(413 183)" fill="#cacaca"/>
          <rect id="Rectangle_17-6" data-name="Rectangle 17" width="4" height="10" rx="2" transform="translate(461 195)" fill="#cacaca"/>
          <rect id="Rectangle_18-7" data-name="Rectangle 18" width="4" height="10" rx="2" transform="translate(451 208)" fill="#cacaca"/>
          <rect id="Rectangle_19-7" data-name="Rectangle 19" width="4" height="10" rx="2" transform="translate(432 208)" fill="#cacaca"/>
          <rect id="Rectangle_20-7" data-name="Rectangle 20" width="4" height="10" rx="2" transform="translate(413 208)" fill="#cacaca"/>
        </g>
        <g id="Group_36-3" data-name="Group 36" transform="translate(58)">
          <rect id="Rectangle_12-8" data-name="Rectangle 12" width="4" height="10" rx="2" transform="translate(442 195)" fill="#cacaca"/>
          <rect id="Rectangle_13-8" data-name="Rectangle 13" width="4" height="10" rx="2" transform="translate(432 183)" fill="#cacaca"/>
          <rect id="Rectangle_14-8" data-name="Rectangle 14" width="4" height="10" rx="2" transform="translate(451 183)" fill="#cacaca"/>
          <rect id="Rectangle_15-8" data-name="Rectangle 15" width="4" height="10" rx="2" transform="translate(423 195)" fill="#cacaca"/>
          <rect id="Rectangle_16-8" data-name="Rectangle 16" width="4" height="10" rx="2" transform="translate(413 183)" fill="#cacaca"/>
          <rect id="Rectangle_17-7" data-name="Rectangle 17" width="4" height="10" rx="2" transform="translate(461 195)" fill="#cacaca"/>
          <rect id="Rectangle_18-8" data-name="Rectangle 18" width="4" height="10" rx="2" transform="translate(451 208)" fill="#cacaca"/>
          <rect id="Rectangle_19-8" data-name="Rectangle 19" width="4" height="10" rx="2" transform="translate(432 208)" fill="#cacaca"/>
          <rect id="Rectangle_20-8" data-name="Rectangle 20" width="4" height="10" rx="2" transform="translate(413 208)" fill="#cacaca"/>
        </g>
        <g id="Group_37-3" data-name="Group 37" transform="translate(116)">
          <rect id="Rectangle_12-9" data-name="Rectangle 12" width="4" height="10" rx="2" transform="translate(442 195)" fill="#cacaca"/>
          <rect id="Rectangle_13-9" data-name="Rectangle 13" width="4" height="10" rx="2" transform="translate(432 183)" fill="#cacaca"/>
          <rect id="Rectangle_14-9" data-name="Rectangle 14" width="4" height="10" rx="2" transform="translate(451 183)" fill="#cacaca"/>
          <rect id="Rectangle_15-9" data-name="Rectangle 15" width="4" height="10" rx="2" transform="translate(423 195)" fill="#cacaca"/>
          <rect id="Rectangle_16-9" data-name="Rectangle 16" width="4" height="10" rx="2" transform="translate(413 183)" fill="#cacaca"/>
          <rect id="Rectangle_17-8" data-name="Rectangle 17" width="4" height="10" rx="2" transform="translate(461 195)" fill="#cacaca"/>
          <rect id="Rectangle_18-9" data-name="Rectangle 18" width="4" height="10" rx="2" transform="translate(451 208)" fill="#cacaca"/>
          <rect id="Rectangle_19-9" data-name="Rectangle 19" width="4" height="10" rx="2" transform="translate(432 208)" fill="#cacaca"/>
          <rect id="Rectangle_20-9" data-name="Rectangle 20" width="4" height="10" rx="2" transform="translate(413 208)" fill="#cacaca"/>
        </g>
      </g>
      <g id="Group_39-2" data-name="Group 39" transform="translate(9 38)">
        <g id="Group_35-4" data-name="Group 35">
          <rect id="Rectangle_12-10" data-name="Rectangle 12" width="4" height="10" rx="2" transform="translate(442 195)" fill="#cacaca"/>
          <rect id="Rectangle_13-10" data-name="Rectangle 13" width="4" height="10" rx="2" transform="translate(432 183)" fill="#cacaca"/>
          <rect id="Rectangle_14-10" data-name="Rectangle 14" width="4" height="10" rx="2" transform="translate(451 183)" fill="#cacaca"/>
          <rect id="Rectangle_15-10" data-name="Rectangle 15" width="4" height="10" rx="2" transform="translate(423 195)" fill="#cacaca"/>
          <rect id="Rectangle_16-10" data-name="Rectangle 16" width="4" height="10" rx="2" transform="translate(413 183)" fill="#cacaca"/>
          <rect id="Rectangle_17-9" data-name="Rectangle 17" width="4" height="10" rx="2" transform="translate(461 195)" fill="#cacaca"/>
          <rect id="Rectangle_18-10" data-name="Rectangle 18" width="4" height="10" rx="2" transform="translate(451 208)" fill="#cacaca"/>
          <rect id="Rectangle_19-10" data-name="Rectangle 19" width="4" height="10" rx="2" transform="translate(432 208)" fill="#cacaca"/>
          <rect id="Rectangle_20-10" data-name="Rectangle 20" width="4" height="10" rx="2" transform="translate(413 208)" fill="#cacaca"/>
        </g>
        <g id="Group_36-4" data-name="Group 36" transform="translate(58)">
          <rect id="Rectangle_12-11" data-name="Rectangle 12" width="4" height="10" rx="2" transform="translate(442 195)" fill="#cacaca"/>
          <rect id="Rectangle_13-11" data-name="Rectangle 13" width="4" height="10" rx="2" transform="translate(432 183)" fill="#cacaca"/>
          <rect id="Rectangle_14-11" data-name="Rectangle 14" width="4" height="10" rx="2" transform="translate(451 183)" fill="#cacaca"/>
          <rect id="Rectangle_15-11" data-name="Rectangle 15" width="4" height="10" rx="2" transform="translate(423 195)" fill="#cacaca"/>
          <rect id="Rectangle_16-11" data-name="Rectangle 16" width="4" height="10" rx="2" transform="translate(413 183)" fill="#cacaca"/>
          <rect id="Rectangle_17-10" data-name="Rectangle 17" width="4" height="10" rx="2" transform="translate(461 195)" fill="#cacaca"/>
          <rect id="Rectangle_18-11" data-name="Rectangle 18" width="4" height="10" rx="2" transform="translate(451 208)" fill="#cacaca"/>
          <rect id="Rectangle_19-11" data-name="Rectangle 19" width="4" height="10" rx="2" transform="translate(432 208)" fill="#cacaca"/>
          <rect id="Rectangle_20-11" data-name="Rectangle 20" width="4" height="10" rx="2" transform="translate(413 208)" fill="#cacaca"/>
        </g>
        <g id="Group_37-4" data-name="Group 37" transform="translate(116)">
          <rect id="Rectangle_12-12" data-name="Rectangle 12" width="4" height="10" rx="2" transform="translate(442 195)" fill="#cacaca"/>
          <rect id="Rectangle_13-12" data-name="Rectangle 13" width="4" height="10" rx="2" transform="translate(432 183)" fill="#cacaca"/>
          <rect id="Rectangle_14-12" data-name="Rectangle 14" width="4" height="10" rx="2" transform="translate(451 183)" fill="#cacaca"/>
          <rect id="Rectangle_15-12" data-name="Rectangle 15" width="4" height="10" rx="2" transform="translate(423 195)" fill="#cacaca"/>
          <rect id="Rectangle_16-12" data-name="Rectangle 16" width="4" height="10" rx="2" transform="translate(413 183)" fill="#cacaca"/>
          <rect id="Rectangle_18-12" data-name="Rectangle 18" width="4" height="10" rx="2" transform="translate(451 208)" fill="#cacaca"/>
          <rect id="Rectangle_19-12" data-name="Rectangle 19" width="4" height="10" rx="2" transform="translate(432 208)" fill="#cacaca"/>
          <rect id="Rectangle_20-12" data-name="Rectangle 20" width="4" height="10" rx="2" transform="translate(413 208)" fill="#cacaca"/>
          <rect id="Rectangle_21-2" data-name="Rectangle 21" width="4" height="10" rx="2" transform="translate(288 196)" fill="#cacaca"/>
        </g>
      </g>
    </g>
    <g id="Group_42" data-name="Group 42" transform="translate(0 154)">
      <g id="Group_38-3" data-name="Group 38">
        <g id="Group_35-5" data-name="Group 35">
          <rect id="Rectangle_12-13" data-name="Rectangle 12" width="4" height="10" rx="2" transform="translate(442 195)" fill="#cacaca"/>
          <rect id="Rectangle_13-13" data-name="Rectangle 13" width="4" height="10" rx="2" transform="translate(432 183)" fill="#cacaca"/>
          <rect id="Rectangle_14-13" data-name="Rectangle 14" width="4" height="10" rx="2" transform="translate(451 183)" fill="#cacaca"/>
          <rect id="Rectangle_15-13" data-name="Rectangle 15" width="4" height="10" rx="2" transform="translate(423 195)" fill="#cacaca"/>
          <rect id="Rectangle_16-13" data-name="Rectangle 16" width="4" height="10" rx="2" transform="translate(413 183)" fill="#cacaca"/>
          <rect id="Rectangle_17-11" data-name="Rectangle 17" width="4" height="10" rx="2" transform="translate(461 195)" fill="#cacaca"/>
          <rect id="Rectangle_18-13" data-name="Rectangle 18" width="4" height="10" rx="2" transform="translate(451 208)" fill="#cacaca"/>
          <rect id="Rectangle_19-13" data-name="Rectangle 19" width="4" height="10" rx="2" transform="translate(432 208)" fill="#cacaca"/>
          <rect id="Rectangle_20-13" data-name="Rectangle 20" width="4" height="10" rx="2" transform="translate(413 208)" fill="#cacaca"/>
        </g>
        <g id="Group_36-5" data-name="Group 36" transform="translate(58)">
          <rect id="Rectangle_12-14" data-name="Rectangle 12" width="4" height="10" rx="2" transform="translate(442 195)" fill="#cacaca"/>
          <rect id="Rectangle_13-14" data-name="Rectangle 13" width="4" height="10" rx="2" transform="translate(432 183)" fill="#cacaca"/>
          <rect id="Rectangle_14-14" data-name="Rectangle 14" width="4" height="10" rx="2" transform="translate(451 183)" fill="#cacaca"/>
          <rect id="Rectangle_15-14" data-name="Rectangle 15" width="4" height="10" rx="2" transform="translate(423 195)" fill="#cacaca"/>
          <rect id="Rectangle_16-14" data-name="Rectangle 16" width="4" height="10" rx="2" transform="translate(413 183)" fill="#cacaca"/>
          <rect id="Rectangle_17-12" data-name="Rectangle 17" width="4" height="10" rx="2" transform="translate(461 195)" fill="#cacaca"/>
          <rect id="Rectangle_18-14" data-name="Rectangle 18" width="4" height="10" rx="2" transform="translate(451 208)" fill="#cacaca"/>
          <rect id="Rectangle_19-14" data-name="Rectangle 19" width="4" height="10" rx="2" transform="translate(432 208)" fill="#cacaca"/>
          <rect id="Rectangle_20-14" data-name="Rectangle 20" width="4" height="10" rx="2" transform="translate(413 208)" fill="#cacaca"/>
        </g>
        <g id="Group_37-5" data-name="Group 37" transform="translate(116)">
          <rect id="Rectangle_12-15" data-name="Rectangle 12" width="4" height="10" rx="2" transform="translate(442 195)" fill="#cacaca"/>
          <rect id="Rectangle_13-15" data-name="Rectangle 13" width="4" height="10" rx="2" transform="translate(432 183)" fill="#cacaca"/>
          <rect id="Rectangle_14-15" data-name="Rectangle 14" width="4" height="10" rx="2" transform="translate(451 183)" fill="#cacaca"/>
          <rect id="Rectangle_15-15" data-name="Rectangle 15" width="4" height="10" rx="2" transform="translate(423 195)" fill="#cacaca"/>
          <rect id="Rectangle_16-15" data-name="Rectangle 16" width="4" height="10" rx="2" transform="translate(413 183)" fill="#cacaca"/>
          <rect id="Rectangle_17-13" data-name="Rectangle 17" width="4" height="10" rx="2" transform="translate(461 195)" fill="#cacaca"/>
          <rect id="Rectangle_18-15" data-name="Rectangle 18" width="4" height="10" rx="2" transform="translate(451 208)" fill="#cacaca"/>
          <rect id="Rectangle_19-15" data-name="Rectangle 19" width="4" height="10" rx="2" transform="translate(432 208)" fill="#cacaca"/>
          <rect id="Rectangle_20-15" data-name="Rectangle 20" width="4" height="10" rx="2" transform="translate(413 208)" fill="#cacaca"/>
        </g>
      </g>
      <g id="Group_39-3" data-name="Group 39" transform="translate(9 38)">
        <g id="Group_35-6" data-name="Group 35">
          <rect id="Rectangle_12-16" data-name="Rectangle 12" width="4" height="10" rx="2" transform="translate(442 195)" fill="#cacaca"/>
          <rect id="Rectangle_13-16" data-name="Rectangle 13" width="4" height="10" rx="2" transform="translate(432 183)" fill="#cacaca"/>
          <rect id="Rectangle_14-16" data-name="Rectangle 14" width="4" height="10" rx="2" transform="translate(451 183)" fill="#cacaca"/>
          <rect id="Rectangle_15-16" data-name="Rectangle 15" width="4" height="10" rx="2" transform="translate(423 195)" fill="#cacaca"/>
          <rect id="Rectangle_16-16" data-name="Rectangle 16" width="4" height="10" rx="2" transform="translate(413 183)" fill="#cacaca"/>
          <rect id="Rectangle_17-14" data-name="Rectangle 17" width="4" height="10" rx="2" transform="translate(461 195)" fill="#cacaca"/>
          <rect id="Rectangle_18-16" data-name="Rectangle 18" width="4" height="10" rx="2" transform="translate(451 208)" fill="#cacaca"/>
          <rect id="Rectangle_19-16" data-name="Rectangle 19" width="4" height="10" rx="2" transform="translate(432 208)" fill="#cacaca"/>
          <rect id="Rectangle_20-16" data-name="Rectangle 20" width="4" height="10" rx="2" transform="translate(413 208)" fill="#cacaca"/>
        </g>
        <g id="Group_36-6" data-name="Group 36" transform="translate(58)">
          <rect id="Rectangle_12-17" data-name="Rectangle 12" width="4" height="10" rx="2" transform="translate(442 195)" fill="#cacaca"/>
          <rect id="Rectangle_13-17" data-name="Rectangle 13" width="4" height="10" rx="2" transform="translate(432 183)" fill="#cacaca"/>
          <rect id="Rectangle_14-17" data-name="Rectangle 14" width="4" height="10" rx="2" transform="translate(451 183)" fill="#cacaca"/>
          <rect id="Rectangle_15-17" data-name="Rectangle 15" width="4" height="10" rx="2" transform="translate(423 195)" fill="#cacaca"/>
          <rect id="Rectangle_16-17" data-name="Rectangle 16" width="4" height="10" rx="2" transform="translate(413 183)" fill="#cacaca"/>
          <rect id="Rectangle_17-15" data-name="Rectangle 17" width="4" height="10" rx="2" transform="translate(461 195)" fill="#cacaca"/>
          <rect id="Rectangle_18-17" data-name="Rectangle 18" width="4" height="10" rx="2" transform="translate(451 208)" fill="#cacaca"/>
          <rect id="Rectangle_19-17" data-name="Rectangle 19" width="4" height="10" rx="2" transform="translate(432 208)" fill="#cacaca"/>
          <rect id="Rectangle_20-17" data-name="Rectangle 20" width="4" height="10" rx="2" transform="translate(413 208)" fill="#cacaca"/>
        </g>
        <g id="Group_37-6" data-name="Group 37" transform="translate(116)">
          <rect id="Rectangle_12-18" data-name="Rectangle 12" width="4" height="10" rx="2" transform="translate(442 195)" fill="#cacaca"/>
          <rect id="Rectangle_13-18" data-name="Rectangle 13" width="4" height="10" rx="2" transform="translate(432 183)" fill="#cacaca"/>
          <rect id="Rectangle_14-18" data-name="Rectangle 14" width="4" height="10" rx="2" transform="translate(451 183)" fill="#cacaca"/>
          <rect id="Rectangle_15-18" data-name="Rectangle 15" width="4" height="10" rx="2" transform="translate(423 195)" fill="#cacaca"/>
          <rect id="Rectangle_16-18" data-name="Rectangle 16" width="4" height="10" rx="2" transform="translate(413 183)" fill="#cacaca"/>
          <rect id="Rectangle_18-18" data-name="Rectangle 18" width="4" height="10" rx="2" transform="translate(451 208)" fill="#cacaca"/>
          <rect id="Rectangle_19-18" data-name="Rectangle 19" width="4" height="10" rx="2" transform="translate(432 208)" fill="#cacaca"/>
          <rect id="Rectangle_20-18" data-name="Rectangle 20" width="4" height="10" rx="2" transform="translate(413 208)" fill="#cacaca"/>
          <rect id="Rectangle_21-3" data-name="Rectangle 21" width="4" height="10" rx="2" transform="translate(288 196)" fill="#cacaca"/>
        </g>
      </g>
    </g>
  </g>
</svg>
