<svg xmlns="http://www.w3.org/2000/svg" width="24.049" height="32" viewBox="0 0 24.049 32"><g transform="translate(-3.976)"><path d="M5.883,12.633A15.19,15.19,0,0,0,16.026,31.987a.32.32,0,0,0,.18,0A15.191,15.191,0,0,0,26.347,12.633Z" fill="#fcc16d"/><path d="M27.1,16.7a15.128,15.128,0,0,0-.753-4.064H5.883A15.124,15.124,0,0,0,5.13,16.7Z" fill="#fcb44d"/><path d="M27.117,17.418A15.182,15.182,0,0,1,16.205,31.987a.32.32,0,0,1-.179,0q-.62-.181-1.218-.414a15.191,15.191,0,0,0,8.924-18.94h2.614A15.157,15.157,0,0,1,27.117,17.418Z" fill="#fcb44d"/><path d="M18.212,1.493a.475.475,0,0,0-.562-.371l-2.023.415A5.7,5.7,0,0,0,14.856.18a.476.476,0,1,0-.745.593C15.37,2.353,15.578,5.73,15.58,5.764a.476.476,0,0,0,.475.449h.027a.476.476,0,0,0,.448-.5,15.717,15.717,0,0,0-.582-3.267l1.893-.388A.475.475,0,0,0,18.212,1.493Z" fill="#9d552e"/><path d="M27.257,15.033H4.743a.767.767,0,0,1-.767-.767V10.42A4.683,4.683,0,0,1,8.658,5.737H23.341a4.683,4.683,0,0,1,4.683,4.683v3.846A.767.767,0,0,1,27.257,15.033Z" fill="#c76d3d"/><path d="M28.024,10.421v3.846a.767.767,0,0,1-.767.767H24.806a.767.767,0,0,0,.767-.767V10.421A4.683,4.683,0,0,0,20.89,5.737h2.451A4.683,4.683,0,0,1,28.024,10.421Z" fill="#aa5e33"/><path d="M13.12,5.738A4.781,4.781,0,0,0,9.043,9.968a.476.476,0,0,1-.473.426.464.464,0,0,1-.051,0A.476.476,0,0,1,8.1,9.867a5.722,5.722,0,0,1,2.465-4.13Z" fill="#aa5e33"/><path d="M23.48,10.39a.465.465,0,0,1-.051,0,.476.476,0,0,1-.473-.426A4.781,4.781,0,0,0,18.88,5.737h2.557A5.722,5.722,0,0,1,23.9,9.866.476.476,0,0,1,23.48,10.39Z" fill="#aa5e33"/><path d="M18.895,10.392a.492.492,0,0,1-.508-.448,5.736,5.736,0,0,0-2.225-3.932.312.312,0,0,0-.325,0,5.741,5.741,0,0,0-2.226,3.954.476.476,0,0,1-.947-.1,7.05,7.05,0,0,1,1.979-4.13h2.713a7.049,7.049,0,0,1,1.979,4.13A.476.476,0,0,1,18.895,10.392Z" fill="#aa5e33"/><path d="M12.795,26.616a.96.96,0,0,1-.868-.826.476.476,0,0,1,.868-.366.476.476,0,0,1,.868.366A.96.96,0,0,1,12.795,26.616Z" fill="#fcb44d"/><path d="M15.007,28.5a.96.96,0,0,1-.868-.826.476.476,0,0,1,.868-.366.476.476,0,0,1,.868.366A.96.96,0,0,1,15.007,28.5Z" fill="#fcb44d"/><path d="M22.684,18.65a.96.96,0,0,1-.868-.826.476.476,0,0,1,.868-.366.476.476,0,0,1,.868.366A.96.96,0,0,1,22.684,18.65Z" fill="#fcb44d"/><path d="M19.511,20.373a.96.96,0,0,1-.868-.826.476.476,0,0,1,.868-.366.476.476,0,0,1,.868.366A.96.96,0,0,1,19.511,20.373Z" fill="#fcb44d"/><path d="M9.386,20.554a.96.96,0,0,1-.868-.826.476.476,0,0,1,.868-.366.476.476,0,0,1,.868.366A.96.96,0,0,1,9.386,20.554Z" fill="#fcb44d"/></g></svg>