<svg xmlns="http://www.w3.org/2000/svg" width="24" height="29.333" viewBox="0 0 24 29.333"><path d="M23.933,4a1.4,1.4,0,0,1,1.4,1.4V26.6a1.4,1.4,0,0,1-1.4,1.4h-5.2a1.4,1.4,0,0,1-1.4-1.4V24.667a1.333,1.333,0,1,0-2.667,0V26.6a1.4,1.4,0,0,1-1.4,1.4h-5.2a1.4,1.4,0,0,1-1.4-1.4V5.4A1.4,1.4,0,0,1,8.067,4ZM20,8a1.333,1.333,0,1,0,1.333-1.333A1.333,1.333,0,0,0,20,8ZM14.667,8A1.333,1.333,0,1,0,16,6.667,1.333,1.333,0,0,0,14.667,8ZM9.333,8a1.333,1.333,0,1,0,1.333-1.333A1.333,1.333,0,0,0,9.333,8ZM20,13.333A1.333,1.333,0,1,0,21.333,12,1.333,1.333,0,0,0,20,13.333Zm-5.333,0A1.333,1.333,0,1,0,16,12,1.333,1.333,0,0,0,14.667,13.333Zm-5.333,0A1.333,1.333,0,1,0,10.667,12,1.333,1.333,0,0,0,9.333,13.333ZM20,18.667a1.333,1.333,0,1,0,1.333-1.333A1.333,1.333,0,0,0,20,18.667Zm-5.333,0A1.333,1.333,0,1,0,16,17.333,1.333,1.333,0,0,0,14.667,18.667Zm-5.333,0a1.333,1.333,0,1,0,1.333-1.333A1.333,1.333,0,0,0,9.333,18.667ZM20,24a1.333,1.333,0,1,0,1.333-1.333A1.333,1.333,0,0,0,20,24ZM9.333,24a1.333,1.333,0,1,0,1.333-1.333A1.333,1.333,0,0,0,9.333,24ZM28,2.733a1.4,1.4,0,0,0-1.4-1.4H5.4A1.4,1.4,0,0,0,4,2.733V29.267a1.4,1.4,0,0,0,1.4,1.4H26.6a1.4,1.4,0,0,0,1.4-1.4Z" transform="translate(-4 -1.333)" fill="#999"/></svg>