<svg xmlns="http://www.w3.org/2000/svg" width="18" height="22" viewBox="0 0 18 22"><path d="M14.6,2A1.4,1.4,0,0,1,16,3.4V18.6A1.4,1.4,0,0,1,14.6,20H11.4A1.4,1.4,0,0,1,10,18.6V17.5a1,1,0,0,0-2,0v1.1A1.4,1.4,0,0,1,6.6,20H3.4A1.4,1.4,0,0,1,2,18.6V3.4A1.4,1.4,0,0,1,3.4,2ZM12,5a1,1,0,1,0,1-1A1,1,0,0,0,12,5ZM8,5A1,1,0,1,0,9,4,1,1,0,0,0,8,5ZM4,5A1,1,0,1,0,5,4,1,1,0,0,0,4,5Zm8,4a1,1,0,1,0,1-1A1,1,0,0,0,12,9ZM8,9A1,1,0,1,0,9,8,1,1,0,0,0,8,9ZM4,9A1,1,0,1,0,5,8,1,1,0,0,0,4,9Zm8,4a1,1,0,1,0,1-1A1,1,0,0,0,12,13ZM8,13a1,1,0,1,0,1-1A1,1,0,0,0,8,13ZM4,13a1,1,0,1,0,1-1A1,1,0,0,0,4,13Zm8,4a1,1,0,1,0,1-1A1,1,0,0,0,12,17ZM4,17a1,1,0,1,0,1-1A1,1,0,0,0,4,17ZM18,1.4A1.4,1.4,0,0,0,16.6,0H1.4A1.4,1.4,0,0,0,0,1.4V20.6A1.4,1.4,0,0,0,1.4,22H16.6A1.4,1.4,0,0,0,18,20.6Z" fill="#00d48b"/></svg>