<svg xmlns="http://www.w3.org/2000/svg" width="48" height="48" viewBox="0 0 48 48"><g transform="translate(0 0)"><path d="M12.872,25.77l5.5,5.5a1.359,1.359,0,0,0,1.922,0l.066-.066a1.359,1.359,0,0,0,0-1.922l-7.491-7.491a2.109,2.109,0,1,1,2.983-2.983L23.346,26.3a1.359,1.359,0,0,0,1.922,0l.066-.066a1.359,1.359,0,0,0,0-1.922l-9.48-9.48a2.109,2.109,0,0,1,2.983-2.983l9.48,9.48a1.359,1.359,0,1,0,1.922-1.922l-7.491-7.491a2.109,2.109,0,0,1,2.983-2.983L41.459,24.66c.406-3.315.916-8.333.917-8.336h0A2.812,2.812,0,0,1,48,16.255c-.823,13.99,1.631,21.48-4.8,27.911-4.393,4.393-12.511,5.388-16.9.994L9.888,28.753a2.109,2.109,0,1,1,2.983-2.983Z" fill="#fff"/><path d="M45.188,10.7a5.636,5.636,0,0,0-3.254,1.033c.222-2.052.393-3.725.393-3.725v0a2.812,2.812,0,0,1,5.624-.067c-.069,1.18-.115,2.314-.145,3.4A5.639,5.639,0,0,0,45.188,10.7Z" fill="#fff"/><path d="M39.317,18.54l-11.6-11.6a4.889,4.889,0,0,0-3.1-1.427L22.7,3.6A2.109,2.109,0,0,1,25.684.618l14.11,14.11a5.611,5.611,0,0,0-.228,1.429C39.533,16.47,39.44,17.376,39.317,18.54Z" fill="#fff"/><path d="M19.547,8.936a4.855,4.855,0,0,0-1.824-.5L15.807,6.518A2.109,2.109,0,0,1,18.79,3.535L21.553,6.3A4.938,4.938,0,0,0,19.547,8.936Z" fill="#fff"/><path d="M1.407,8.625H4.219a1.406,1.406,0,0,1,0,2.812H1.407a1.406,1.406,0,1,1,0-2.812Z" fill="#fff"/><path d="M3.318.412a1.406,1.406,0,0,1,1.989,0L8.12,3.225A1.406,1.406,0,0,1,6.131,5.213L3.318,2.4A1.406,1.406,0,0,1,3.318.412Z" fill="#fff"/></g></svg>