<svg xmlns="http://www.w3.org/2000/svg" xmlns:xlink="http://www.w3.org/1999/xlink" width="20" height="20" viewBox="0 0 20 20"><defs><clipPath id="a"><rect width="20" height="20" transform="translate(20 20.5) rotate(180)" fill="#fff"/></clipPath></defs><g transform="translate(0 -0.5)" clip-path="url(#a)"><path d="M20,7.775c-.092,1.568-.085,2.869-.078,4.017.018,3.042.046,5.025-2.093,7.164a5.279,5.279,0,0,1-7.457,0h0l-5.8-5.8a1.758,1.758,0,0,1,.485-2.829l-.961-.961a1.757,1.757,0,0,1,.546-2.856,1.757,1.757,0,0,1,.8-2.472A1.758,1.758,0,0,1,7.787,1.561a1.759,1.759,0,0,1,2.856-.546c.036.035,3.1,3.09,5.063,5.049l.3-2.131a1.758,1.758,0,0,1,3.514,0c0,.016,0,.032,0,.049-.047.8-.072,1.6-.079,2.5A1.74,1.74,0,0,1,20,7.775ZM5.4,12.327l5.8,5.8a4.106,4.106,0,0,0,5.8,0c1.777-1.777,1.768-3.3,1.75-6.328-.007-1.158-.015-2.47.078-4.064a.587.587,0,0,0-1-.38c-.2.2-.123.284-.177.5v0l-.47,3.326a.586.586,0,0,1-.994.332l-5.832-5.83a.586.586,0,0,0-.812.844h0l2.486,2.486a.586.586,0,0,1-.829.829L7.884,6.527a.586.586,0,0,0-.829.829L10.37,10.67a.586.586,0,0,1-.829.829L7.055,9.013a.586.586,0,0,0-.829.829l2.486,2.486a.586.586,0,0,1-.829.829L6.224,11.5a.586.586,0,0,0-.826.832Zm.353-7.1a.586.586,0,0,0,0,.829l.132.132a1.771,1.771,0,0,1,.829-.829l-.133-.133A.587.587,0,0,0,5.751,5.222ZM4.922,8.537l.133.133a1.753,1.753,0,0,1,.829-.829l-.133-.133a.586.586,0,1,0-.829.829ZM6.5,2.673a.586.586,0,0,0,0,.827L8.369,5.354a1.762,1.762,0,0,1,.825-.826L7.33,2.673A.587.587,0,0,0,6.5,2.673Zm9.207,5.05c-1.75-1.75-5.851-5.836-5.893-5.878a.586.586,0,0,0-.863.791C14.432,8.1,6.376.046,16.183,9.854l.294-2.08A.585.585,0,0,1,15.709,7.723Zm2.642-3.778a.587.587,0,0,0-1-.38c-.2.2-.123.284-.177.5L16.79,6.778a1.753,1.753,0,0,1,1.486-.765C18.287,5.285,18.312,4.613,18.351,3.945Z" fill="#bdbdbd"/><path d="M.585,4.1H1.757a.586.586,0,1,1,0,1.172H.585a.586.586,0,1,1,0-1.172Z" fill="#bdbdbd"/><path d="M2.554,2.674,1.382,1.5A.586.586,0,0,1,2.211.673L3.383,1.845a.586.586,0,0,1-.829.829Z" fill="#bdbdbd"/></g></svg>