<svg xmlns="http://www.w3.org/2000/svg" width="24" height="22.961" viewBox="0 0 24 22.961"><g transform="translate(0 -0.519)"><path d="M23.285,22.052h-.715V3.137A2.511,2.511,0,0,0,20.189.519H13.638a2.511,2.511,0,0,0-2.382,2.617V6.61a2.6,2.6,0,0,0-.6-.076H4.109A2.276,2.276,0,0,0,1.727,8.681v13.37H.715a.715.715,0,0,0,0,1.429H23.285a.715.715,0,0,0,0-1.429ZM3.633,8.682c0-.07.167-.242.476-.242H10.66c.309,0,.476.171.476.242v13.37h-7.5Zm9.529-5.545c0-.42.251-.712.476-.712h6.551c.225,0,.476.292.476.712V22.052h-7.5Z" fill="#999"/><path d="M15.755,6.566H14.577a.69.69,0,0,0-.69.69V8.434a.69.69,0,0,0,.69.69h1.178a.69.69,0,0,0,.69-.69V7.255A.69.69,0,0,0,15.755,6.566Z" fill="#999"/><path d="M15.755,9.9H14.577a.69.69,0,0,0-.69.69v1.178a.69.69,0,0,0,.69.69h1.178a.69.69,0,0,0,.69-.69V10.591A.69.69,0,0,0,15.755,9.9Z" fill="#999"/><path d="M15.755,13.236H14.577a.69.69,0,0,0-.69.69V15.1a.69.69,0,0,0,.69.69h1.178a.69.69,0,0,0,.69-.69V13.925A.69.69,0,0,0,15.755,13.236Z" fill="#999"/><path d="M15.755,16.571H14.577a.69.69,0,0,0-.69.69v1.178a.69.69,0,0,0,.69.69h1.178a.69.69,0,0,0,.69-.69V17.26A.69.69,0,0,0,15.755,16.571Z" fill="#999"/><path d="M6.721,13.236H5.542a.69.69,0,0,0-.69.69V15.1a.69.69,0,0,0,.69.69H6.721a.69.69,0,0,0,.69-.69V13.926A.69.69,0,0,0,6.721,13.236Z" fill="#999"/><path d="M6.721,16.571H5.542a.69.69,0,0,0-.69.69v1.178a.69.69,0,0,0,.69.69H6.721a.69.69,0,0,0,.69-.69V17.26A.69.69,0,0,0,6.721,16.571Z" fill="#999"/></g></svg>