<svg xmlns="http://www.w3.org/2000/svg" width="31.333" height="31.333" viewBox="0 0 31.333 31.333"><g transform="translate(-0.333 -0.333)"><path d="M24,5.333H8A2.667,2.667,0,0,0,5.333,8V24A2.667,2.667,0,0,0,8,26.667H24A2.667,2.667,0,0,0,26.667,24V8A2.667,2.667,0,0,0,24,5.333Z" fill="none" stroke="#999" stroke-linecap="round" stroke-linejoin="round" stroke-width="2"/><path d="M20,12H12v8h8Z" fill="none" stroke="#999" stroke-linecap="round" stroke-linejoin="round" stroke-width="2"/><path d="M12,1.333v4" fill="none" stroke="#999" stroke-linecap="round" stroke-linejoin="round" stroke-width="2"/><path d="M20,1.333v4" fill="none" stroke="#999" stroke-linecap="round" stroke-linejoin="round" stroke-width="2"/><path d="M12,26.667v4" fill="none" stroke="#999" stroke-linecap="round" stroke-linejoin="round" stroke-width="2"/><path d="M20,26.667v4" fill="none" stroke="#999" stroke-linecap="round" stroke-linejoin="round" stroke-width="2"/><path d="M26.667,12h4" fill="none" stroke="#999" stroke-linecap="round" stroke-linejoin="round" stroke-width="2"/><path d="M26.667,18.667h4" fill="none" stroke="#999" stroke-linecap="round" stroke-linejoin="round" stroke-width="2"/><path d="M1.333,12h4" fill="none" stroke="#999" stroke-linecap="round" stroke-linejoin="round" stroke-width="2"/><path d="M1.333,18.667h4" fill="none" stroke="#999" stroke-linecap="round" stroke-linejoin="round" stroke-width="2"/></g></svg>