<svg xmlns="http://www.w3.org/2000/svg" width="24" height="24" viewBox="0 0 24 24"><path d="M18,4H6A2,2,0,0,0,4,6V18a2,2,0,0,0,2,2H18a2,2,0,0,0,2-2V6A2,2,0,0,0,18,4Z" fill="none" stroke="#00d58b" stroke-linecap="round" stroke-linejoin="round" stroke-width="2"/><path d="M15,9H9v6h6Z" fill="none" stroke="#00d58b" stroke-linecap="round" stroke-linejoin="round" stroke-width="2"/><path d="M9,1V4" fill="none" stroke="#00d58b" stroke-linecap="round" stroke-linejoin="round" stroke-width="2"/><path d="M15,1V4" fill="none" stroke="#00d58b" stroke-linecap="round" stroke-linejoin="round" stroke-width="2"/><path d="M9,20v3" fill="none" stroke="#00d58b" stroke-linecap="round" stroke-linejoin="round" stroke-width="2"/><path d="M15,20v3" fill="none" stroke="#00d58b" stroke-linecap="round" stroke-linejoin="round" stroke-width="2"/><path d="M20,9h3" fill="none" stroke="#00d58b" stroke-linecap="round" stroke-linejoin="round" stroke-width="2"/><path d="M20,14h3" fill="none" stroke="#00d58b" stroke-linecap="round" stroke-linejoin="round" stroke-width="2"/><path d="M1,9H4" fill="none" stroke="#00d58b" stroke-linecap="round" stroke-linejoin="round" stroke-width="2"/><path d="M1,14H4" fill="none" stroke="#00d58b" stroke-linecap="round" stroke-linejoin="round" stroke-width="2"/></svg>