<svg xmlns="http://www.w3.org/2000/svg" width="17.834" height="21.189" viewBox="0 0 17.834 21.189"><path d="M21.142,3.567v0a.829.829,0,0,0-.467-1.07L20.64,2.48h-.008A10.38,10.38,0,0,0,7.259,8.45a9.942,9.942,0,0,0-.317.958H4.624a.824.824,0,0,0,0,1.648h2a10.669,10.669,0,0,0,.048,2.6H4.624a.824.824,0,1,0,0,1.648h2.43a10.379,10.379,0,0,0,12.887,6.788h0c.24-.076.481-.158.716-.247h0a.822.822,0,0,0-.6-1.533,8.728,8.728,0,0,1-11.274-5H17.73a.824.824,0,1,0,0-1.648H8.343a8.912,8.912,0,0,1-.055-2.6H18.729a.824.824,0,0,0,0-1.648H8.667A8.733,8.733,0,0,1,19.458,3.827c.2.062.41.129.616.207A.829.829,0,0,0,21.142,3.567Z" transform="translate(-3.6 -1.57)" fill="#007dfe" stroke="#007dfe" stroke-width="0.4"/></svg>