<svg xmlns="http://www.w3.org/2000/svg" xmlns:xlink="http://www.w3.org/1999/xlink" width="26.4" height="31.498" viewBox="0 0 26.4 31.498"><defs><clipPath id="a"><rect width="26.4" height="20" transform="translate(3.2 0.8)" fill="#fff"/></clipPath></defs><g transform="translate(-3.2 -0.8)"><path d="M10.767,16.256A2.181,2.181,0,0,1,8.6,14.062v-2.1a2.169,2.169,0,1,1,4.338,0v2.1A2.182,2.182,0,0,1,10.767,16.256Z" fill="#e9630d"/><path d="M10.767,17.428c-1.2,0-2.169-.7-2.169-1.565V14.368c0-.864.971-1.565,2.169-1.565s2.169.7,2.169,1.565v1.495C12.936,16.727,11.965,17.428,10.767,17.428Z" fill="#e9630d"/><path d="M22.631,16.256a2.181,2.181,0,0,1-2.169-2.194v-2.1a2.169,2.169,0,1,1,4.338,0v2.1A2.182,2.182,0,0,1,22.631,16.256Z" fill="#e9630d"/><path d="M22.631,17.428c-1.2,0-2.169-.7-2.169-1.565V14.368c0-.864.971-1.565,2.169-1.565s2.169.7,2.169,1.565v1.495C24.8,16.727,23.829,17.428,22.631,17.428Z" fill="#e9630d"/><path d="M29,22.135C29,27.748,23.435,32.3,16.57,32.3S4.141,27.748,4.141,22.135,9.706,11.972,16.57,11.972,29,16.522,29,22.135Z" fill="#e9630d"/><path d="M13.422,23.28a1.906,1.906,0,1,1-.558-1.347A1.907,1.907,0,0,1,13.422,23.28Z" fill="#fff"/><path d="M11.517,22.416a1,1,0,0,0-.349.063.58.58,0,0,1-.654.878c0,.021,0,.043,0,.064a1.006,1.006,0,1,0,1.006-1.006" fill="#1a171b"/><path d="M23.554,23.422A1.905,1.905,0,1,1,23,22.075,1.905,1.905,0,0,1,23.554,23.422Z" fill="#fff"/><path d="M21.648,22.416a1,1,0,0,0-.349.063.585.585,0,0,1-.49.9.577.577,0,0,1-.164-.026c0,.021,0,.043,0,.064a1.006,1.006,0,1,0,1.006-1.006" fill="#1a171b"/><path d="M10.766,27.153a1.6,1.6,0,1,1-.122-.613A1.6,1.6,0,0,1,10.766,27.153Z" fill="#eca1b7"/><path d="M25.561,27.153a1.6,1.6,0,1,1-.122-.613A1.6,1.6,0,0,1,25.561,27.153Z" fill="#eca1b7"/><path d="M16.959,26.608h-.731a.818.818,0,1,1,0-1.636h.731a.818.818,0,1,1,0,1.636Z"/><path d="M14.4,28a2.05,2.05,0,0,0,4,0" fill="none" stroke="#993f1f" stroke-linecap="round" stroke-miterlimit="10" stroke-width="0.426"/><path d="M21.283,28.574a6.618,6.618,0,0,1-2.513-1.169A4.555,4.555,0,0,0,16.354,26.4a4.555,4.555,0,0,0-2.416,1.005,6.608,6.608,0,0,1-2.513,1.169.271.271,0,0,0,.046.539,7.98,7.98,0,0,0,2.97-.629,5.4,5.4,0,0,1,1.913-.456,4.667,4.667,0,0,1,1.767.433,7.756,7.756,0,0,0,3.117.652.271.271,0,0,0,.045-.539Z"/><path d="M21.871,20.954a2.625,2.625,0,0,0-2.622,2.622.238.238,0,1,0,.477,0,2.148,2.148,0,0,1,2.145-2.145.238.238,0,1,0,0-.477Z"/><path d="M25.685,22.861a.712.712,0,0,0-.3.068,3.575,3.575,0,1,0,0,1.294.684.684,0,0,0,.538.024V28.02a.238.238,0,1,0,.477,0V23.576A.716.716,0,0,0,25.685,22.861Zm-3.814,3.814a3.1,3.1,0,1,1,3.1-3.1A3.1,3.1,0,0,1,21.871,26.675Z"/><g clip-path="url(#a)"><path d="M27.28,15.1h-.825V10.6c0-4.2-4.511-7.617-10.055-7.617S6.346,6.4,6.346,10.6V15.1H5.521A2.1,2.1,0,0,0,3.2,16.854a2.1,2.1,0,0,0,2.32,1.758H27.28a2.1,2.1,0,0,0,2.32-1.758A2.1,2.1,0,0,0,27.28,15.1Z" fill="#607d8b"/><path d="M27.28,15.1h-.825V10.6c0-4.2-4.51-7.617-10.055-7.617V18.612H27.28a2.1,2.1,0,0,0,2.32-1.758A2.1,2.1,0,0,0,27.28,15.1Z" fill="#455a64"/><path d="M26.455,15.1H6.345V11.19H26.455Z" fill="#afaeb4"/><path d="M16.4,15.1V11.19H26.455V15.1" fill="#888890"/></g></g></svg>