<svg xmlns="http://www.w3.org/2000/svg" width="24.86" height="30.4" viewBox="0 0 24.86 30.4"><g transform="translate(-0.518 -0.6)"><path d="M7.368,15.583a2.1,2.1,0,0,1-2.084-2.108V11.461a2.084,2.084,0,1,1,4.169,0v2.014A2.1,2.1,0,0,1,7.368,15.583Z" fill="#e9630d"/><path d="M7.368,16.709c-1.151,0-2.084-.673-2.084-1.5V13.769c0-.831.933-1.5,2.084-1.5s2.084.673,2.084,1.5v1.436C9.452,16.036,8.519,16.709,7.368,16.709Z" fill="#e9630d"/><path d="M18.77,15.583a2.1,2.1,0,0,1-2.084-2.108V11.461a2.085,2.085,0,1,1,4.169,0v2.014A2.1,2.1,0,0,1,18.77,15.583Z" fill="#e9630d"/><path d="M18.77,16.709c-1.151,0-2.084-.673-2.084-1.5V13.769c0-.831.933-1.5,2.084-1.5s2.084.673,2.084,1.5v1.436C20.854,16.036,19.921,16.709,18.77,16.709Z" fill="#e9630d"/><path d="M24.89,21.233C24.89,26.627,19.542,31,12.945,31S1,26.627,1,21.233s5.348-9.767,11.945-9.767S24.89,15.839,24.89,21.233Z" fill="#e9630d"/><path d="M9.92,22.334a1.831,1.831,0,1,1-.536-1.295A1.831,1.831,0,0,1,9.92,22.334Z" fill="#fff"/><path d="M8.089,21.5a.965.965,0,0,0-.335.061.558.558,0,0,1-.628.844c0,.021,0,.041,0,.062a.967.967,0,1,0,.967-.967" fill="#1a171b"/><path d="M19.657,22.47a1.831,1.831,0,1,1-.536-1.3A1.832,1.832,0,0,1,19.657,22.47Z" fill="#fff"/><path d="M17.825,21.5a.963.963,0,0,0-.335.061.562.562,0,0,1-.471.869.556.556,0,0,1-.157-.025c0,.021,0,.041,0,.062a.967.967,0,1,0,.967-.967" fill="#1a171b"/><path d="M7.368,26.056a1.539,1.539,0,1,1-.117-.589A1.539,1.539,0,0,1,7.368,26.056Z" fill="#eca1b7"/><path d="M21.586,26.056a1.539,1.539,0,1,1-.117-.589A1.54,1.54,0,0,1,21.586,26.056Z" fill="#eca1b7"/><path d="M2.742,19.406a9.409,9.409,0,0,0-.192,1.831V21.3c0,1.727.527,3.885,3.245,4.151,4.365.427,6.181-.7,6.242-6.074Z" fill="none" stroke="#000" stroke-linecap="round" stroke-linejoin="round" stroke-width="0.857"/><path d="M11.777,19.375h1.214" fill="none" stroke="#000" stroke-linecap="round" stroke-linejoin="round" stroke-width="0.857"/><path d="M23.193,19.406a9.4,9.4,0,0,1,.192,1.831V21.3c0,1.727-.527,3.885-3.245,4.151-4.365.427-6.181-.7-6.242-6.074Z" fill="none" stroke="#000" stroke-linecap="round" stroke-linejoin="round" stroke-width="0.857"/><path d="M14.158,19.375H12.945" fill="none" stroke="#000" stroke-linecap="round" stroke-linejoin="round" stroke-width="0.857"/><path d="M13.318,25.531h-.7a.786.786,0,1,1,0-1.572h.7a.786.786,0,1,1,0,1.572Z"/><path d="M12.511,27.887h-1.2v1.176h1.2Z" fill="#fff"/><path d="M14.514,27.887h-1.2v1.176h1.2Z" fill="#fff"/><path d="M9.872,26.169a3.174,3.174,0,0,0,3.073,1.891,3.174,3.174,0,0,0,3.073-1.891" fill="none" stroke="#993f1f" stroke-linecap="round" stroke-miterlimit="10" stroke-width="0.428"/><path d="M1.1,20.251l1.342.775" fill="none" stroke="#000" stroke-linecap="round" stroke-linejoin="round" stroke-width="0.857"/><path d="M23.451,21.043l1.342-.775" fill="none" stroke="#000" stroke-linecap="round" stroke-linejoin="round" stroke-width="0.857"/><path d="M20.237,12.825H5.879a.663.663,0,0,1-.548-.29C3.437,9.758,3.291,4.413,3.28,3.62c0-.031,0-.063,0-.094a.663.663,0,0,1,.662-.663h0a.663.663,0,0,1,.663.661s0,.044,0,.113a3.514,3.514,0,0,0,7.026-.11.663.663,0,0,1,.663-.663H13.82a.663.663,0,0,1,.663.663,3.514,3.514,0,0,0,7.026.105c0-.066,0-.1,0-.108a.663.663,0,0,1,.663-.661h0a.663.663,0,0,1,.662.663q0,.047,0,.094c-.011.793-.156,6.137-2.051,8.916A.663.663,0,0,1,20.237,12.825Z" fill="#fff780"/><path d="M22.175,2.863h0a.663.663,0,0,0-.663.661s0,.042,0,.108a3.514,3.514,0,0,1-7.026-.105.663.663,0,0,0-.663-.663h-.762v9.962h7.179a.663.663,0,0,0,.548-.29c1.894-2.778,2.04-8.122,2.051-8.916,0-.031,0-.063,0-.094A.663.663,0,0,0,22.175,2.863Z" fill="#ffc02e"/><path d="M13.058.6A2.142,2.142,0,1,0,15.2,2.743,2.145,2.145,0,0,0,13.058.6Z" fill="#ffc02e"/><path d="M13.058.6V4.885a2.143,2.143,0,0,0,0-4.285Z" fill="#ffa73b"/><path d="M3.942,2.254A2.143,2.143,0,1,0,6.085,4.4,2.145,2.145,0,0,0,3.942,2.254Z" fill="#ffc02e"/><path d="M22.174,2.254A2.142,2.142,0,1,0,24.316,4.4,2.145,2.145,0,0,0,22.174,2.254Z" fill="#ffa73b"/><path d="M20.237,15H5.879a.663.663,0,0,1-.663-.663V12.359H20.9v1.977A.663.663,0,0,1,20.237,15Z" fill="#ffc02e"/><path d="M13.058,15h7.179a.663.663,0,0,0,.663-.663V12.359H13.058Z" fill="#ffa73b"/></g></svg>