<svg xmlns="http://www.w3.org/2000/svg" xmlns:xlink="http://www.w3.org/1999/xlink" width="23.89" height="33.6" viewBox="0 0 23.89 33.6"><defs><clipPath id="a"><rect width="22" height="22" transform="translate(0.8 0.4)" fill="#fff"/></clipPath></defs><g transform="translate(0 -0.4)"><path d="M6.368,18.583a2.1,2.1,0,0,1-2.084-2.108V14.461a2.084,2.084,0,1,1,4.169,0v2.014A2.1,2.1,0,0,1,6.368,18.583Z" fill="#e9630d"/><path d="M6.368,19.709c-1.151,0-2.084-.673-2.084-1.5V16.769c0-.831.933-1.5,2.084-1.5s2.084.673,2.084,1.5v1.436C8.452,19.036,7.519,19.709,6.368,19.709Z" fill="#e9630d"/><path d="M17.77,18.583a2.1,2.1,0,0,1-2.084-2.108V14.461a2.085,2.085,0,1,1,4.169,0v2.014A2.1,2.1,0,0,1,17.77,18.583Z" fill="#e9630d"/><path d="M17.769,19.709c-1.151,0-2.084-.673-2.084-1.5V16.769c0-.831.933-1.5,2.084-1.5s2.084.673,2.084,1.5v1.436C19.853,19.036,18.92,19.709,17.769,19.709Z" fill="#e9630d"/><path d="M23.89,24.233C23.89,29.627,18.542,34,11.945,34S0,29.627,0,24.233s5.348-9.767,11.945-9.767S23.89,18.839,23.89,24.233Z" fill="#e9630d"/><path d="M8.92,25.334a1.831,1.831,0,1,1-.536-1.295A1.831,1.831,0,0,1,8.92,25.334Z" fill="#fff"/><path d="M7.089,24.5a.965.965,0,0,0-.335.061.558.558,0,0,1-.628.844c0,.021,0,.041,0,.062a.967.967,0,1,0,.967-.967" fill="#1a171b"/><path d="M18.657,25.47a1.831,1.831,0,1,1-.536-1.3A1.832,1.832,0,0,1,18.657,25.47Z" fill="#fff"/><path d="M16.825,24.5a.963.963,0,0,0-.335.061.562.562,0,0,1-.471.869.556.556,0,0,1-.157-.025c0,.021,0,.041,0,.062a.967.967,0,1,0,.967-.967" fill="#1a171b"/><path d="M6.368,29.056a1.539,1.539,0,1,1-.117-.589A1.539,1.539,0,0,1,6.368,29.056Z" fill="#eca1b7"/><path d="M20.586,29.056a1.539,1.539,0,1,1-.117-.589A1.54,1.54,0,0,1,20.586,29.056Z" fill="#eca1b7"/><path d="M12.319,28.531h-.7a.786.786,0,1,1,0-1.572h.7a.786.786,0,1,1,0,1.572Z"/><path d="M11.511,30.887h-1.2v1.176h1.2Z" fill="#fff"/><path d="M13.514,30.887h-1.2v1.176h1.2Z" fill="#fff"/><path d="M8.872,29.169a3.174,3.174,0,0,0,3.073,1.891,3.174,3.174,0,0,0,3.073-1.891" fill="none" stroke="#993f1f" stroke-linecap="round" stroke-miterlimit="10" stroke-width="0.428"/><g clip-path="url(#a)"><g clip-path="url(#a)"><path d="M12.078,9.275c-5.106,0-9.244,3.51-9.244,7.84a6.816,6.816,0,0,0,.808,3.2c2.277,1.068,5.085.97,8.125.97,3.42,0,6.547-.07,8.953-1.391a6.787,6.787,0,0,0,.6-2.784C21.322,12.785,17.184,9.275,12.078,9.275Z" fill="#21b4f3"/><path d="M11.8,9.645a.263.263,0,0,1-.277-.247V6.933a.279.279,0,0,1,.555,0V9.4A.263.263,0,0,1,11.8,9.645Z" fill="#d1d4d1"/><path d="M21.213,17.718l-.308.176c-2.374,1.34-5.429,1.446-9.178,1.446h-.741c-2.807.006-5.46.014-7.572-1L3,18.083a7.83,7.83,0,0,0,.247,1.042,17.167,17.167,0,0,0,7.023,1h1.455c3.731,0,6.8-.11,9.3-1.408A7.656,7.656,0,0,0,21.213,17.718Z" fill="#0a87bc"/><path d="M11.9,9.642a4.915,4.915,0,0,1,1.9,2.145,8.368,8.368,0,0,1,.056,7.878.357.357,0,0,0,.194.484.41.41,0,0,0,.161.033.393.393,0,0,0,.356-.215,9.007,9.007,0,0,0-.537-9.271,6.565,6.565,0,0,0-1.267-1.4c-.206-.012-.412-.02-.622-.02s-.411.008-.614.02A.368.368,0,0,0,11.9,9.642Z" fill="#0a87bc"/><path d="M12.078,9.278v0h-.072a10.65,10.65,0,0,0-1.226.072,6.756,6.756,0,0,0-1.2,1.35,9,9,0,0,0-.537,9.271.394.394,0,0,0,.356.215.413.413,0,0,0,.162-.033.357.357,0,0,0,.195-.484,8.358,8.358,0,0,1,.055-7.878,5.032,5.032,0,0,1,1.88-2.144A.378.378,0,0,0,12.078,9.278Z" fill="#0a87bc"/><path d="M11.792,3.911l.009.006V3.9Z" fill="#a5a5a4"/><path d="M.8,6.753A1.853,1.853,0,0,0,1.858,8.291,2.168,2.168,0,0,1,.906,7.279l.557.2a6.752,6.752,0,0,0,4.827-.286.378.378,0,0,1,.059-.044,7.664,7.664,0,0,1,5.329-.39l-.127.082c.143-.092.227-.15.241-.16A13.076,13.076,0,0,0,4.806,4.267C2.616,4.267.8,5.439.8,6.753Z" fill="#fbff32"/><path d="M6.731,7.841a.367.367,0,0,1-.058.043,8.721,8.721,0,0,1-3.359.737,6.091,6.091,0,0,1-.946-.076,6.413,6.413,0,0,0,2.415.436H4.8a13.369,13.369,0,0,0,6.724-2.12c-.176.112-.433.268-.758.446A7.415,7.415,0,0,0,6.731,7.841Z" fill="#c9cc28"/><path d="M2.1,5.651q-.12-.06-.231-.125C1.944,5.569,2.021,5.611,2.1,5.651Z" fill="#a5a5a4"/><path d="M2.369,5.772q-.132-.055-.255-.115C2.2,5.7,2.281,5.736,2.369,5.772Z" fill="#a5a5a4"/><path d="M11.548,4.071l-.023.015Z" fill="#d1d4d1"/><path d="M1.87,5.525l-.012-.007Z" fill="#d1d4d1"/><path d="M2.114,5.656,2.1,5.65Z" fill="#d1d4d1"/><path d="M6.348,7.151a.354.354,0,0,0-.059.044,6.754,6.754,0,0,1-4.827.286l-.556-.2a2.17,2.17,0,0,0,.952,1.013L1.87,8.3c.074.044.151.085.231.125l.012.006q.123.061.255.115a6.09,6.09,0,0,0,.946.076,8.713,8.713,0,0,0,3.359-.737.367.367,0,0,0,.058-.043,7.413,7.413,0,0,1,4.035-.535c.325-.178.582-.334.758-.446l.026-.016.127-.082A7.665,7.665,0,0,0,6.348,7.151Z" fill="#e2e62d"/><path d="M22.363,2.885a2.173,2.173,0,0,1,.2.289A2.112,2.112,0,0,0,22.363,2.885Z" fill="#d1d4d1"/><path d="M11.81,3.911c.013.009.088.061.214.143C11.9,3.972,11.823,3.92,11.81,3.911Z" fill="#d1d4d1"/><path d="M11.816,3.906l.037-.027Z" fill="#d1d4d1"/><path d="M16.779,5.688a.367.367,0,0,1,.055-.043,7.32,7.32,0,0,1,4.893-.553,3.05,3.05,0,0,1,.628.557,4.732,4.732,0,0,0-3.561-1.382,12.589,12.589,0,0,0-6.232,1.921A6.571,6.571,0,0,0,16.779,5.688Z" fill="#fbff32"/><path d="M11.8,3.919l.011-.008Z" fill="#d1d4d1"/><path d="M22.726,6.3,21.8,5.954c-1.9-.809-4.227.212-4.57.372a.388.388,0,0,1-.055.043,8.239,8.239,0,0,1-3.332.79,4.944,4.944,0,0,1-1.821-.331A13.389,13.389,0,0,0,18.8,8.981h.018c2.189,0,3.981-.915,3.982-2.229a1.586,1.586,0,0,0-.217-.775A1.752,1.752,0,0,1,22.726,6.3Z" fill="#c9cc28"/><path d="M12.029,3.757c.127-.086.306-.2.531-.34C12.335,3.554,12.156,3.67,12.029,3.757Z" fill="#d1d4d1"/><path d="M11.9,3.847l.12-.082Z" fill="#d1d4d1"/><path d="M11.811,3.912,11.8,3.9Z" fill="#a5a5a4"/><path d="M11.8,3.9v.012l.009-.006Z" fill="#a5a5a4"/><path d="M12.024,4.054h0Z" fill="#a5a5a4"/><path d="M12.019,3.764l.011-.008Z" fill="#a5a5a4"/><path d="M22.355,2.876l.009.012Z" fill="#a5a5a4"/><path d="M11.815,3.906l-.005,0Z" fill="#a5a5a4"/><path d="M11.854,3.879l.045-.032Z" fill="#a5a5a4"/><path d="M12.563,3.416h0Z" fill="#a5a5a4"/><path d="M22.565,3.174l.018.029Z" fill="#a5a5a4"/><path d="M17.178,6.369a.362.362,0,0,0,.055-.043c.343-.159,2.673-1.18,4.57-.371l.923.343a1.746,1.746,0,0,0-.142-.319c-.005-.01-.012-.02-.018-.03a2.148,2.148,0,0,0-.2-.289l-.007-.009a3.058,3.058,0,0,0-.628-.557,7.325,7.325,0,0,0-4.893.553.362.362,0,0,0-.055.043,6.576,6.576,0,0,1-4.217.5h0c-.225.137-.4.254-.531.34l-.011.007-.12.082-.045.032-.037.027-.007.005c.013.009.088.061.214.143h0a4.943,4.943,0,0,0,1.821.331A8.237,8.237,0,0,0,17.178,6.369Z" fill="#e2e62d"/></g></g></g></svg>