<svg xmlns="http://www.w3.org/2000/svg" xmlns:xlink="http://www.w3.org/1999/xlink" width="26.495" height="32" viewBox="0 0 26.495 32"><defs><clipPath id="a"><rect width="17.997" height="17.997" transform="translate(4.774)" fill="#fff"/></clipPath></defs><g transform="translate(-0.514)"><path d="M7.8,15.534a2.239,2.239,0,0,1-2.226-2.252v-2.15a2.226,2.226,0,1,1,4.452,0v2.15A2.239,2.239,0,0,1,7.8,15.534Z" fill="#e9630d"/><path d="M7.8,16.737c-1.229,0-2.226-.719-2.226-1.606V13.6c0-.887,1-1.606,2.226-1.606s2.226.719,2.226,1.606V15.13C10.027,16.017,9.031,16.737,7.8,16.737Z" fill="#e9630d"/><path d="M19.979,15.534a2.239,2.239,0,0,1-2.226-2.252v-2.15a2.226,2.226,0,1,1,4.452,0v2.15A2.24,2.24,0,0,1,19.979,15.534Z" fill="#e9630d"/><path d="M19.979,16.737c-1.229,0-2.226-.719-2.226-1.606V13.6c0-.887,1-1.606,2.226-1.606s2.226.719,2.226,1.606V15.13C22.2,16.017,21.208,16.737,19.979,16.737Z" fill="#e9630d"/><path d="M26.515,21.569C26.515,27.33,20.8,32,13.757,32S1,27.33,1,21.569,6.712,11.137,13.758,11.137,26.515,15.807,26.515,21.569Z" fill="#e9630d"/><path d="M10.527,22.743a1.956,1.956,0,1,1-.573-1.383A1.956,1.956,0,0,1,10.527,22.743Z" fill="#fff"/><path d="M8.571,21.856a1.031,1.031,0,0,0-.358.065.6.6,0,0,1-.671.9c0,.022,0,.044,0,.066a1.033,1.033,0,1,0,1.033-1.033" fill="#1a171b"/><path d="M20.926,22.889a1.956,1.956,0,1,1-.573-1.383A1.956,1.956,0,0,1,20.926,22.889Z" fill="#fff"/><path d="M18.971,21.856a1.031,1.031,0,0,0-.358.065.6.6,0,0,1-.5.928.591.591,0,0,1-.168-.027c0,.022,0,.044,0,.066a1.033,1.033,0,1,0,1.033-1.033" fill="#1a171b"/><path d="M7.8,26.719a1.643,1.643,0,1,1-.125-.629A1.643,1.643,0,0,1,7.8,26.719Z" fill="#eca1b7"/><path d="M22.987,26.719a1.643,1.643,0,1,1-.125-.629A1.643,1.643,0,0,1,22.987,26.719Z" fill="#eca1b7"/><path d="M2.86,19.617a10.049,10.049,0,0,0-.205,1.956v.065c0,1.844.563,4.15,3.465,4.434,4.662.456,6.6-.75,6.667-6.488Z" fill="none" stroke="#000" stroke-linecap="round" stroke-linejoin="round" stroke-width="0.874"/><path d="M12.51,19.584h1.3" fill="none" stroke="#000" stroke-linecap="round" stroke-linejoin="round" stroke-width="0.874"/><path d="M24.7,19.617a10.05,10.05,0,0,1,.205,1.956v.065c0,1.844-.563,4.15-3.465,4.434-4.662.456-6.6-.75-6.667-6.488Z" fill="none" stroke="#000" stroke-linecap="round" stroke-linejoin="round" stroke-width="0.874"/><path d="M15.053,19.584h-1.3" fill="none" stroke="#000" stroke-linecap="round" stroke-linejoin="round" stroke-width="0.874"/><path d="M14.157,26.16h-.75a.84.84,0,0,1,0-1.679h.75a.84.84,0,1,1,0,1.679Z"/><path d="M13.294,28.675H12.009V29.93h1.285Z" fill="#fff"/><path d="M15.433,28.675H14.148V29.93h1.285Z" fill="#fff"/><path d="M10.476,26.841a3.39,3.39,0,0,0,3.282,2.02,3.39,3.39,0,0,0,3.282-2.02" fill="none" stroke="#993f1f" stroke-linecap="round" stroke-miterlimit="10" stroke-width="0.437"/><path d="M1.111,20.52l1.433.828" fill="none" stroke="#000" stroke-linecap="round" stroke-linejoin="round" stroke-width="0.874"/><path d="M24.978,21.365l1.434-.828" fill="none" stroke="#000" stroke-linecap="round" stroke-linejoin="round" stroke-width="0.874"/><g clip-path="url(#a)"><path d="M14.083,4.306h-.62a.621.621,0,0,1,0-1.241h.62a.621.621,0,0,1,0,1.241Z" fill="#ffdc64"/><path d="M14.4,3.919H13.149c-4.3,0-7.795,3.046-7.795,6.8v1.905H22.191V10.722C22.191,6.965,18.7,3.919,14.4,3.919Z" fill="#ff2b37"/><path d="M4.837,14.433A1.392,1.392,0,0,0,6.37,16.222a50.64,50.64,0,0,1,7.4-.5,50.654,50.654,0,0,1,7.4.5,1.392,1.392,0,0,0,1.533-1.789l-.558-1.815a32.868,32.868,0,0,0-8.377-.931,32.869,32.869,0,0,0-8.377.931Z" fill="#ffdc64"/><path d="M14.181,3.919h-.817c-2.82,0-5.107,3.039-5.107,6.789v1.629h11.03V10.708C19.288,6.958,17,3.919,14.181,3.919Z" fill="#fff"/><path d="M14.7,10.136H12.842a.62.62,0,1,1,0-1.241H14.7a.62.62,0,1,1,0,1.241Z" fill="#ffdc64"/><path d="M13.772,14.479a51.827,51.827,0,0,1,7.589.516l.027,0a.141.141,0,0,0,.11-.062.144.144,0,0,0,.023-.138l-.832-2.521a37.3,37.3,0,0,0-6.918-.589,37.305,37.305,0,0,0-6.918.589L6.023,14.8a.144.144,0,0,0,.023.138.141.141,0,0,0,.11.062l.027,0A51.828,51.828,0,0,1,13.772,14.479Z" fill="#ffc850"/></g></g></svg>