<svg xmlns="http://www.w3.org/2000/svg" width="38" height="36.202" viewBox="0 0 38 36.202"><path d="M19,.489A19.4,19.4,0,0,0,11.729,1.9,19.037,19.037,0,0,0,5.565,5.923,18.331,18.331,0,0,0,0,19.04,18.648,18.648,0,0,0,13,36.663c.95.148,1.254-.427,1.254-.928V32.6c-5.263,1.113-6.384-2.486-6.384-2.486a5.024,5.024,0,0,0-2.109-2.727c-1.729-1.15.133-1.113.133-1.113A3.986,3.986,0,0,1,8.8,28.185c1.653,2.82,4.446,1.985,5.529,1.54a3.97,3.97,0,0,1,1.2-2.486c-4.218-.464-8.645-2.059-8.645-9.127a7.09,7.09,0,0,1,1.957-5.027,6.489,6.489,0,0,1,.19-4.9s1.6-.5,5.225,1.892a18.735,18.735,0,0,1,9.5,0c3.629-2.393,5.225-1.892,5.225-1.892a6.489,6.489,0,0,1,.19,4.9,7.09,7.09,0,0,1,1.957,5.027c0,7.086-4.446,8.645-8.683,9.108a4.372,4.372,0,0,1,1.311,3.432v5.083c0,.5.3,1.094,1.273.928A18.648,18.648,0,0,0,38,19.04a18.169,18.169,0,0,0-1.446-7.1,18.527,18.527,0,0,0-4.119-6.018A19.037,19.037,0,0,0,26.271,1.9,19.4,19.4,0,0,0,19,.489Z" transform="translate(0 -0.489)" fill="#171515"/></svg>