<svg xmlns="http://www.w3.org/2000/svg" width="26.667" height="24.467" viewBox="0 0 26.667 24.467"><path d="M16.133,24.733,16,24.867l-.147-.133c-6.333-5.747-10.52-9.547-10.52-13.4A4.557,4.557,0,0,1,10,6.667a5.234,5.234,0,0,1,4.76,3.147h2.48A5.234,5.234,0,0,1,22,6.667a4.557,4.557,0,0,1,4.667,4.667C26.667,15.187,22.48,18.987,16.133,24.733ZM22,4a8.018,8.018,0,0,0-6,2.773A8.018,8.018,0,0,0,10,4a7.254,7.254,0,0,0-7.333,7.333c0,5.027,4.533,9.147,11.4,15.373L16,28.467l1.933-1.76c6.867-6.227,11.4-10.347,11.4-15.373A7.254,7.254,0,0,0,22,4Z" transform="translate(-2.667 -4)" fill="#fff"/></svg>