<svg xmlns="http://www.w3.org/2000/svg" width="34" height="33.267" viewBox="0 0 34 33.267"><path d="M30.222.957a3.821,3.821,0,0,1,2.671,1.083A3.656,3.656,0,0,1,34,4.653V30.528a3.656,3.656,0,0,1-1.106,2.614,3.821,3.821,0,0,1-2.671,1.083H3.778a3.82,3.82,0,0,1-2.671-1.083A3.656,3.656,0,0,1,0,30.528V4.653A3.656,3.656,0,0,1,1.106,2.039,3.82,3.82,0,0,1,3.778.957ZM29.278,29.6v-9.8a5.96,5.96,0,0,0-1.8-4.26,6.227,6.227,0,0,0-4.354-1.765,5.5,5.5,0,0,0-4.382,2.4V14.134h-5.27V29.6h5.27V20.492A2.608,2.608,0,0,1,21.363,17.9a2.674,2.674,0,0,1,1.87.758,2.559,2.559,0,0,1,.775,1.83V29.6ZM7.329,11.233a3.209,3.209,0,0,0,2.244-.909,3.071,3.071,0,0,0,.929-2.2A3.15,3.15,0,0,0,7.329,5a3.228,3.228,0,0,0-2.257.915,3.09,3.09,0,0,0-.935,2.209A3.151,3.151,0,0,0,7.329,11.233ZM9.954,29.6V14.134H4.722V29.6Z" transform="translate(0 -0.957)" fill="#0077b5"/></svg>