<svg xmlns="http://www.w3.org/2000/svg" width="21.333" height="28" viewBox="0 0 21.333 28"><path d="M16,2.667A7.967,7.967,0,0,1,24,10.6c0,5.947-8,14.733-8,14.733S8,16.546,8,10.6A7.967,7.967,0,0,1,16,2.667ZM16,8a2.667,2.667,0,1,0,1.886.781A2.667,2.667,0,0,0,16,8ZM26.667,25.333c0,2.947-4.773,5.333-10.667,5.333S5.333,28.28,5.333,25.333c0-1.72,1.627-3.253,4.147-4.227l.853,1.213C8.893,22.92,8,23.747,8,24.667,8,26.507,11.587,28,16,28s8-1.493,8-3.333c0-.92-.893-1.747-2.333-2.347l.853-1.213C25.04,22.08,26.667,23.613,26.667,25.333Z" transform="translate(-5.333 -2.667)" fill="currentColor"/></svg>