<svg xmlns="http://www.w3.org/2000/svg" width="123.933" height="121.811" viewBox="0 0 123.933 121.811"><g transform="translate(-0.051 -0.189)"><path d="M107.863,30.176l-23.38,2.262a2.422,2.422,0,0,1-1.755-.532,2.377,2.377,0,0,1-.866-1.6l-.173-1.757a2.368,2.368,0,0,1,.537-1.738,2.413,2.413,0,0,1,1.618-.858l23.379-2.262a2.421,2.421,0,0,1,1.755.531,2.374,2.374,0,0,1,.866,1.6l.173,1.757a2.371,2.371,0,0,1-.536,1.738A2.415,2.415,0,0,1,107.863,30.176Z" fill="#00b0f0"/><path d="M33.743,2V18.069" fill="none" stroke="#903b1e" stroke-linecap="round" stroke-miterlimit="10" stroke-width="3.621"/><path d="M24.017,5.207l9.726,12.862" fill="none" stroke="#903b1e" stroke-linecap="round" stroke-miterlimit="10" stroke-width="3.621"/><path d="M43.348,5.115l-9.61,12.961" fill="none" stroke="#903b1e" stroke-linecap="round" stroke-miterlimit="10" stroke-width="3.621"/><path d="M33.986,45.292a10.58,10.58,0,0,1-7.428-3.1A10.379,10.379,0,0,1,23.516,34.8V24.784a10.321,10.321,0,0,1,3.021-7.416,10.536,10.536,0,0,1,14.9,0,10.321,10.321,0,0,1,3.021,7.416V34.8A10.481,10.481,0,0,1,33.986,45.292Z" fill="#e9630d"/><path d="M33.986,50.9c-5.782,0-10.47-3.35-10.47-7.483V36.266c0-4.132,4.688-7.483,10.47-7.483s10.47,3.35,10.47,7.483v7.146C44.454,47.545,39.768,50.9,33.986,50.9Z" fill="#e9630d"/><path d="M91.017,2V18.069" fill="none" stroke="#903b1e" stroke-linecap="round" stroke-miterlimit="10" stroke-width="3.621"/><path d="M81.291,5.207l9.726,12.862" fill="none" stroke="#903b1e" stroke-linecap="round" stroke-miterlimit="10" stroke-width="3.621"/><path d="M100.621,5.115l-9.61,12.961" fill="none" stroke="#903b1e" stroke-linecap="round" stroke-miterlimit="10" stroke-width="3.621"/><path d="M91.259,45.292a10.58,10.58,0,0,1-7.428-3.1A10.38,10.38,0,0,1,80.789,34.8V24.784a10.32,10.32,0,0,1,3.021-7.416,10.536,10.536,0,0,1,14.9,0,10.321,10.321,0,0,1,3.021,7.416V34.8A10.483,10.483,0,0,1,91.259,45.292Z" fill="#e9630d"/><path d="M91.259,50.9c-5.782,0-10.47-3.35-10.47-7.483V36.266c0-4.132,4.688-7.483,10.47-7.483s10.469,3.35,10.469,7.483v7.146C101.727,47.545,97.039,50.9,91.259,50.9Z" fill="#e9630d"/><path d="M122,73.4c0,26.838-26.863,48.6-60,48.6S2,100.244,2,73.4,28.863,24.81,62,24.81,122,46.567,122,73.4Z" fill="#e9630d"/><path d="M46.8,78.88a9.05,9.05,0,0,1-1.55,5.062A9.181,9.181,0,0,1,41.126,87.3,9.263,9.263,0,0,1,31.1,85.324,9.065,9.065,0,0,1,32.5,71.3a9.266,9.266,0,0,1,11.615,1.133A9.068,9.068,0,0,1,46.8,78.88Z" fill="#fff"/><path d="M34.566,86.618a4.879,4.879,0,0,0,1.5.831,2.754,2.754,0,0,1,2.089-2.435,2.818,2.818,0,0,1,3.013,1.179c.069-.075.141-.148.206-.228a4.779,4.779,0,0,0,1.057-2.588,4.848,4.848,0,0,0-.567-2.752A4.891,4.891,0,0,0,37.1,78.084a4.787,4.787,0,0,0-4.113,6.2A4.893,4.893,0,0,0,34.566,86.618Z" fill="#1a171b"/><path d="M95.715,79.559a9.051,9.051,0,0,1-1.55,5.062,9.181,9.181,0,0,1-4.128,3.356A9.263,9.263,0,0,1,80.012,86a9.064,9.064,0,0,1,1.394-14.019A9.266,9.266,0,0,1,93.02,73.116,9.068,9.068,0,0,1,95.715,79.559Z" fill="#fff"/><path d="M83.42,86.574a4.88,4.88,0,0,0,1.485.852,2.773,2.773,0,0,1,1.751-2.267,2.807,2.807,0,0,1,1.485-.151,2.842,2.842,0,0,1,1.36.631,2.8,2.8,0,0,1,.524.6c.071-.074.143-.146.21-.225a4.779,4.779,0,0,0,1.094-2.573,4.847,4.847,0,0,0-.528-2.759,4.891,4.891,0,0,0-4.723-2.608,4.786,4.786,0,0,0-4.2,6.139,4.89,4.89,0,0,0,1.543,2.357" fill="#1a171b"/><path d="M33.986,97.4a7.606,7.606,0,0,1-1.3,4.254,7.719,7.719,0,0,1-3.469,2.82,7.786,7.786,0,0,1-8.423-1.66,7.617,7.617,0,0,1,1.171-11.78,7.779,7.779,0,0,1,9.76.952A7.62,7.62,0,0,1,33.986,97.4Z" fill="#eca1b7"/><path d="M105.4,97.4a7.607,7.607,0,0,1-1.3,4.254,7.777,7.777,0,0,1-11.893,1.16,7.617,7.617,0,0,1,1.171-11.78,7.78,7.78,0,0,1,9.76.952A7.627,7.627,0,0,1,105.4,97.4Z" fill="#eca1b7"/><path d="M10.75,64.313a46.388,46.388,0,0,0-.964,9.112v.3c0,8.591,2.648,19.331,16.3,20.655C48.01,96.51,57.132,90.89,57.439,64.161Z" fill="none" stroke="#000" stroke-linecap="round" stroke-linejoin="round" stroke-width="3.621"/><path d="M56.133,64.161h6.1" fill="none" stroke="#000" stroke-linecap="round" stroke-linejoin="round" stroke-width="3.621"/><path d="M113.477,64.313a46.431,46.431,0,0,1,.964,9.112v.3c0,8.591-2.648,19.331-16.3,20.655C76.217,96.51,67.1,90.89,66.788,64.161Z" fill="none" stroke="#000" stroke-linecap="round" stroke-linejoin="round" stroke-width="3.621"/><path d="M68.093,64.161H62" fill="none" stroke="#000" stroke-linecap="round" stroke-linejoin="round" stroke-width="3.621"/><path d="M84.605,32.586a21.433,21.433,0,0,0-6.487-15,21.885,21.885,0,0,0-30.494,0,21.433,21.433,0,0,0-6.487,15Z" fill="#00b0f0"/><path d="M58.343,29.623a5.613,5.613,0,0,0-1.7-3.927,5.732,5.732,0,0,0-7.984,0,5.613,5.613,0,0,0-1.7,3.927Z" fill="#0084b4"/><path d="M63.877,94.792H60.35a3.967,3.967,0,0,1-2.792-1.145,3.885,3.885,0,0,1,0-5.531,3.967,3.967,0,0,1,2.792-1.146h3.527a3.967,3.967,0,0,1,2.792,1.146,3.885,3.885,0,0,1,0,5.531A3.967,3.967,0,0,1,63.877,94.792Z"/><path d="M59.819,106.512H53.775v5.849h6.045Z" fill="#fff"/><path d="M69.881,106.512H63.837v5.849h6.045Z" fill="#fff"/><path d="M46.562,97.966c1.93,5.432,8.107,9.408,15.437,9.408s13.507-3.976,15.437-9.408" fill="none" stroke="#993f1f" stroke-linecap="round" stroke-miterlimit="10" stroke-width="1.811"/><path d="M2.522,68.52l6.741,3.856" fill="none" stroke="#000" stroke-linecap="round" stroke-linejoin="round" stroke-width="3.621"/><path d="M114.769,72.46l6.744-3.856" fill="none" stroke="#000" stroke-linecap="round" stroke-linejoin="round" stroke-width="3.621"/></g></svg>