<svg xmlns="http://www.w3.org/2000/svg" width="57.505" height="56.724" viewBox="0 0 57.505 56.724"><g transform="translate(-0.255 -0.276)"><path d="M50.4,14.149,39.492,15.2a1.13,1.13,0,0,1-.819-.248,1.109,1.109,0,0,1-.4-.748l-.081-.82a1.105,1.105,0,0,1,.25-.811,1.126,1.126,0,0,1,.755-.4L50.1,11.122a1.131,1.131,0,0,1,.819.248,1.109,1.109,0,0,1,.4.748l.081.82a1.105,1.105,0,0,1-.25.811A1.126,1.126,0,0,1,50.4,14.149Z" fill="#00b0f0"/><path d="M15.814,1V8.5" fill="none" stroke="#903b1e" stroke-linecap="round" stroke-miterlimit="10" stroke-width="1.448"/><path d="M11.275,2.5l4.539,6" fill="none" stroke="#903b1e" stroke-linecap="round" stroke-miterlimit="10" stroke-width="1.448"/><path d="M20.3,2.454,15.811,8.5" fill="none" stroke="#903b1e" stroke-linecap="round" stroke-miterlimit="10" stroke-width="1.448"/><path d="M15.927,21.2a4.937,4.937,0,0,1-3.466-1.445,4.844,4.844,0,0,1-1.419-3.45V11.632a4.817,4.817,0,0,1,1.41-3.461,4.916,4.916,0,0,1,6.952,0,4.816,4.816,0,0,1,1.41,3.461v4.675A4.891,4.891,0,0,1,15.927,21.2Z" fill="#e9630d"/><path d="M15.927,23.817c-2.7,0-4.886-1.563-4.886-3.492V16.991c0-1.928,2.188-3.492,4.886-3.492s4.886,1.563,4.886,3.492v3.335C20.812,22.254,18.625,23.817,15.927,23.817Z" fill="#e9630d"/><path d="M42.541,1V8.5" fill="none" stroke="#903b1e" stroke-linecap="round" stroke-miterlimit="10" stroke-width="1.448"/><path d="M38,2.5l4.539,6" fill="none" stroke="#903b1e" stroke-linecap="round" stroke-miterlimit="10" stroke-width="1.448"/><path d="M47.023,2.454,42.538,8.5" fill="none" stroke="#903b1e" stroke-linecap="round" stroke-miterlimit="10" stroke-width="1.448"/><path d="M42.654,21.2a4.937,4.937,0,0,1-3.466-1.445,4.844,4.844,0,0,1-1.419-3.45V11.632a4.816,4.816,0,0,1,1.41-3.461,4.917,4.917,0,0,1,6.952,0,4.816,4.816,0,0,1,1.41,3.461v4.675A4.892,4.892,0,0,1,42.654,21.2Z" fill="#e9630d"/><path d="M42.654,23.817c-2.7,0-4.886-1.563-4.886-3.492V16.991c0-1.928,2.188-3.492,4.886-3.492s4.886,1.563,4.886,3.492v3.335C47.539,22.254,45.352,23.817,42.654,23.817Z" fill="#e9630d"/><path d="M57,34.322C57,46.847,44.464,57,29,57S1,46.847,1,34.322,13.536,11.645,29,11.645,57,21.8,57,34.322Z" fill="#e9630d"/><path d="M21.909,36.877a4.224,4.224,0,0,1-.723,2.362,4.285,4.285,0,0,1-1.927,1.566,4.323,4.323,0,0,1-4.678-.922,4.23,4.23,0,0,1,.65-6.542,4.324,4.324,0,0,1,5.42.529A4.232,4.232,0,0,1,21.909,36.877Z" fill="#fff"/><path d="M19.173,39.439a2.276,2.276,0,0,0,.786-.142A1.286,1.286,0,0,1,20,37.8a1.315,1.315,0,0,1,1.437-.464c0-.048.007-.095.007-.143a2.231,2.231,0,0,0-.382-1.248,2.262,2.262,0,0,0-1.017-.827,2.282,2.282,0,0,0-2.47.487,2.234,2.234,0,0,0,.344,3.455A2.283,2.283,0,0,0,19.173,39.439Z" fill="#1a171b"/><path d="M44.734,37.194a4.224,4.224,0,0,1-.723,2.362,4.284,4.284,0,0,1-1.927,1.566,4.323,4.323,0,0,1-4.678-.922,4.23,4.23,0,0,1,.651-6.542,4.324,4.324,0,0,1,5.42.529A4.232,4.232,0,0,1,44.734,37.194Z" fill="#fff"/><path d="M42,39.439a2.276,2.276,0,0,0,.786-.142,1.294,1.294,0,0,1-.056-1.336,1.31,1.31,0,0,1,.485-.5,1.285,1.285,0,0,1,1.044-.125c0-.048.007-.095.007-.143a2.231,2.231,0,0,0-.382-1.247,2.262,2.262,0,0,0-1.017-.827,2.283,2.283,0,0,0-2.47.487,2.233,2.233,0,0,0,.344,3.454A2.282,2.282,0,0,0,42,39.439" fill="#1a171b"/><path d="M15.927,45.518a3.549,3.549,0,0,1-.608,1.985A3.6,3.6,0,0,1,13.7,48.819a3.632,3.632,0,0,1-3.931-.774,3.554,3.554,0,0,1,.547-5.5,3.63,3.63,0,0,1,4.555.444,3.556,3.556,0,0,1,1.056,2.527Z" fill="#eca1b7"/><path d="M49.255,45.518a3.549,3.549,0,0,1-.608,1.985,3.6,3.6,0,0,1-1.619,1.316,3.632,3.632,0,0,1-3.931-.774,3.554,3.554,0,0,1,.547-5.5,3.63,3.63,0,0,1,4.555.444,3.556,3.556,0,0,1,1.057,2.527Z" fill="#eca1b7"/><path d="M5.083,30.079a21.648,21.648,0,0,0-.45,4.252v.142c0,4.009,1.236,9.021,7.606,9.639,10.232.992,14.489-1.63,14.632-14.1Z" fill="none" stroke="#000" stroke-linecap="round" stroke-linejoin="round" stroke-width="1.448"/><path d="M26.262,30.008h2.845" fill="none" stroke="#000" stroke-linecap="round" stroke-linejoin="round" stroke-width="1.448"/><path d="M53.022,30.079a21.643,21.643,0,0,1,.45,4.252v.142c0,4.009-1.236,9.021-7.606,9.639-10.232.992-14.489-1.63-14.632-14.1Z" fill="none" stroke="#000" stroke-linecap="round" stroke-linejoin="round" stroke-width="1.448"/><path d="M31.844,30.008H29" fill="none" stroke="#000" stroke-linecap="round" stroke-linejoin="round" stroke-width="1.448"/><path d="M39.549,15.273a10,10,0,0,0-3.027-7,10.213,10.213,0,0,0-14.23,0,10,10,0,0,0-3.027,7Z" fill="#00b0f0"/><path d="M27.294,13.891a2.62,2.62,0,0,0-.793-1.832,2.675,2.675,0,0,0-3.726,0,2.62,2.62,0,0,0-.793,1.832Z" fill="#0084b4"/><path d="M29.876,44.3H28.23a1.851,1.851,0,0,1-1.3-.535,1.813,1.813,0,0,1,0-2.581,1.851,1.851,0,0,1,1.3-.535h1.646a1.851,1.851,0,0,1,1.3.535,1.813,1.813,0,0,1,0,2.581A1.852,1.852,0,0,1,29.876,44.3Z"/><path d="M27.982,49.772H25.161V52.5h2.821Z" fill="#fff"/><path d="M32.678,49.772H29.857V52.5h2.821Z" fill="#fff"/><path d="M21.8,45.784c.9,2.535,3.783,4.39,7.2,4.39s6.3-1.855,7.2-4.39" fill="none" stroke="#993f1f" stroke-linecap="round" stroke-miterlimit="10" stroke-width="0.724"/><path d="M1.243,32.042l3.146,1.8" fill="none" stroke="#000" stroke-linecap="round" stroke-linejoin="round" stroke-width="1.448"/><path d="M53.625,33.881l3.147-1.8" fill="none" stroke="#000" stroke-linecap="round" stroke-linejoin="round" stroke-width="1.448"/></g></svg>