<svg width="14" height="10" viewBox="0 0 14 10" fill="none" xmlns="http://www.w3.org/2000/svg">
    <path d="M4.99998 5.83333C3.43998 5.83333 0.333313 6.61333 0.333313 8.16667V9.33333H9.66665V8.16667C9.66665 6.61333 6.55998 5.83333 4.99998 5.83333ZM1.89331 8C2.45331 7.61333 3.80665 7.16667 4.99998 7.16667C6.19331 7.16667 7.54665 7.61333 8.10665 8H1.89331ZM4.99998 4.66667C6.28665 4.66667 7.33331 3.62 7.33331 2.33333C7.33331 1.04667 6.28665 0 4.99998 0C3.71331 0 2.66665 1.04667 2.66665 2.33333C2.66665 3.62 3.71331 4.66667 4.99998 4.66667ZM4.99998 1.33333C5.55331 1.33333 5.99998 1.78 5.99998 2.33333C5.99998 2.88667 5.55331 3.33333 4.99998 3.33333C4.44665 3.33333 3.99998 2.88667 3.99998 2.33333C3.99998 1.78 4.44665 1.33333 4.99998 1.33333ZM9.69331 5.87333C10.4666 6.43333 11 7.18 11 8.16667V9.33333H13.6666V8.16667C13.6666 6.82 11.3333 6.05333 9.69331 5.87333ZM8.99998 4.66667C10.2866 4.66667 11.3333 3.62 11.3333 2.33333C11.3333 1.04667 10.2866 0 8.99998 0C8.63998 0 8.30665 0.0866666 7.99998 0.233333C8.41998 0.826667 8.66665 1.55333 8.66665 2.33333C8.66665 3.11333 8.41998 3.84 7.99998 4.43333C8.30665 4.58 8.63998 4.66667 8.99998 4.66667Z" fill="currentColor"/>
</svg>