<svg xmlns="http://www.w3.org/2000/svg" width="22" height="18" viewBox="0 0 22 18"><path d="M22,13a1,1,0,1,0-1,1A1,1,0,0,0,22,13Zm0-4a1,1,0,1,0-1,1A1,1,0,0,0,22,9Zm-.285,7.945C22,16.474,21.552,16,21,16a1,1,0,0,0-1,1c0,.552.474,1,.945.715A2.354,2.354,0,0,0,21.715,16.945ZM14,1a1,1,0,1,0-1,1A1,1,0,0,0,14,1Zm8,4a1,1,0,1,0-1,1A1,1,0,0,0,22,5ZM20.945.285C20.474,0,20,.448,20,1a1,1,0,0,0,1,1c.552,0,1-.474.715-.945A2.354,2.354,0,0,0,20.945.285ZM2,18H9a1,1,0,0,0,1-1V13a1,1,0,0,0-1-1H1a1,1,0,0,0-1,1v3a2,2,0,0,0,2,2ZM2,5A1,1,0,1,0,1,6,1,1,0,0,0,2,5ZM14,17a1,1,0,1,0-1,1A1,1,0,0,0,14,17ZM18,1a1,1,0,1,0-1,1A1,1,0,0,0,18,1Zm0,16a1,1,0,1,0-1,1A1,1,0,0,0,18,17ZM2,1c0-.552-.474-1-.945-.715a2.355,2.355,0,0,0-.769.769C0,1.526.448,2,1,2A1,1,0,0,0,2,1ZM2,9a1,1,0,1,0-1,1A1,1,0,0,0,2,9Zm8-8A1,1,0,1,0,9,2,1,1,0,0,0,10,1ZM6,1A1,1,0,1,0,5,2,1,1,0,0,0,6,1Z" fill="#007dfe"/></svg>