<svg xmlns="http://www.w3.org/2000/svg" width="29.333" height="24" viewBox="0 0 29.333 24"><path d="M30.667,21a1,1,0,0,0-1-1H29a1,1,0,0,0-1,1v.667a1,1,0,0,0,1,1h.667a1,1,0,0,0,1-1Zm0-5.333a1,1,0,0,0-1-1H29a1,1,0,0,0-1,1v.667a1,1,0,0,0,1,1h.667a1,1,0,0,0,1-1ZM30.443,26.3c.231-.5-.224-.967-.776-.967H29a1,1,0,0,0-1,1V27c0,.552.465,1.008.967.777A3.093,3.093,0,0,0,30.443,26.3ZM20,5a1,1,0,0,0-1-1h-.667a1,1,0,0,0-1,1v.667a1,1,0,0,0,1,1H19a1,1,0,0,0,1-1Zm10.667,5.333a1,1,0,0,0-1-1H29a1,1,0,0,0-1,1V11a1,1,0,0,0,1,1h.667a1,1,0,0,0,1-1Zm-1.7-6.11C28.465,3.992,28,4.448,28,5v.667a1,1,0,0,0,1,1h.667c.552,0,1.008-.465.776-.967A3.094,3.094,0,0,0,28.967,4.223ZM4,28h9.667a1,1,0,0,0,1-1V21a1,1,0,0,0-1-1H2.333a1,1,0,0,0-1,1v4.333A2.667,2.667,0,0,0,4,28ZM4,10.333a1,1,0,0,0-1-1H2.333a1,1,0,0,0-1,1V11a1,1,0,0,0,1,1H3a1,1,0,0,0,1-1Zm16,16a1,1,0,0,0-1-1h-.667a1,1,0,0,0-1,1V27a1,1,0,0,0,1,1H19a1,1,0,0,0,1-1ZM25.333,5a1,1,0,0,0-1-1h-.667a1,1,0,0,0-1,1v.667a1,1,0,0,0,1,1h.667a1,1,0,0,0,1-1Zm0,21.333a1,1,0,0,0-1-1h-.667a1,1,0,0,0-1,1V27a1,1,0,0,0,1,1h.667a1,1,0,0,0,1-1ZM4,5c0-.552-.465-1.008-.967-.777A3.094,3.094,0,0,0,1.557,5.7c-.231.5.224.967.777.967H3a1,1,0,0,0,1-1ZM4,15.667a1,1,0,0,0-1-1H2.333a1,1,0,0,0-1,1v.667a1,1,0,0,0,1,1H3a1,1,0,0,0,1-1ZM14.667,5a1,1,0,0,0-1-1H13a1,1,0,0,0-1,1v.667a1,1,0,0,0,1,1h.667a1,1,0,0,0,1-1ZM9.333,5a1,1,0,0,0-1-1H7.667a1,1,0,0,0-1,1v.667a1,1,0,0,0,1,1h.667a1,1,0,0,0,1-1Z" transform="translate(-1.333 -4)" fill="#999"/></svg>