<svg width="12" height="16" viewBox="0 0 12 16" fill="none" xmlns="http://www.w3.org/2000/svg">
    <path d="M12 12.1869C12 10.1009 10.8852 8.29907 9.27273 7.45981V4.36075C9.27273 4.0785 9.18239 3.80561 9.01534 3.59065L6.41761 0.213084C6.30852 0.0710281 6.15341 0 6 0C5.84659 0 5.69148 0.0710281 5.58239 0.213084L2.98466 3.59065C2.81875 3.80605 2.72759 4.0788 2.72727 4.36075V7.45981C1.11477 8.29907 0 10.1009 0 12.1869H2.66761C2.62841 12.3215 2.60795 12.4673 2.60795 12.6318C2.60795 13.0449 2.7375 13.4486 2.97273 13.7682C3.16473 14.0296 3.41902 14.2276 3.70739 14.3402C4.10114 15.3495 4.99602 16 6 16C6.49602 16 6.97671 15.8393 7.3875 15.5364C7.78977 15.2411 8.10171 14.828 8.29091 14.3402C8.57916 14.2283 8.83347 14.031 9.02557 13.7701C9.26111 13.4476 9.38973 13.0468 9.39034 12.6336C9.39034 12.4766 9.37159 12.3271 9.3375 12.1888H12V12.1869ZM10.2665 10.0449C10.4267 10.3178 10.5563 10.6112 10.65 10.9159H9.20455V8.8729C9.62981 9.17722 9.99168 9.57659 10.2665 10.0449ZM3.88636 7.45981V4.38878L6 1.64112L8.11364 4.38878V10.9159H3.88636V7.45981ZM1.35 10.9159C1.44375 10.6112 1.5733 10.3178 1.73352 10.0449C2.01136 9.57383 2.37273 9.1757 2.79545 8.8729V10.9159H1.35ZM7.97898 13.0879C7.89034 13.1439 7.78807 13.1664 7.6875 13.1514L7.35511 13.1065L7.30739 13.4692C7.21534 14.1776 6.65284 14.7121 6 14.7121C5.34716 14.7121 4.78466 14.1776 4.69261 13.4692L4.64489 13.1047L4.3125 13.1514C4.21145 13.1646 4.10921 13.1417 4.02102 13.086C3.87273 12.9925 3.78068 12.8187 3.78068 12.6299C3.78068 12.4318 3.88125 12.2673 4.02955 12.185H7.97216C8.12216 12.2692 8.22102 12.4336 8.22102 12.6299C8.21932 12.8206 8.12727 12.9963 7.97898 13.0879ZM5.18182 5.90654C5.18182 6.14449 5.26802 6.3727 5.42146 6.54096C5.5749 6.70921 5.783 6.80374 6 6.80374C6.217 6.80374 6.4251 6.70921 6.57854 6.54096C6.73198 6.3727 6.81818 6.14449 6.81818 5.90654C6.81818 5.66859 6.73198 5.44039 6.57854 5.27213C6.4251 5.10387 6.217 5.00935 6 5.00935C5.783 5.00935 5.5749 5.10387 5.42146 5.27213C5.26802 5.44039 5.18182 5.66859 5.18182 5.90654Z" fill="currentColor"/>
</svg>