<svg xmlns="http://www.w3.org/2000/svg" xmlns:xlink="http://www.w3.org/1999/xlink" width="48" height="48" viewBox="0 0 48 48">
  <defs>
    <clipPath id="clip-path">
      <rect id="Rectangle_22" data-name="Rectangle 22" width="48" height="48" fill="#fff"/>
    </clipPath>
  </defs>
  <g id="Group_44" data-name="Group 44" clip-path="url(#clip-path)">
    <path id="Path_269" data-name="Path 269" d="M28.241,32.263l2.639-.428a.854.854,0,0,1,.534.086l15.566,8.153a.856.856,0,0,1-.233,1.6L14.417,47.984a.857.857,0,0,1-.685-.16L1.064,38.136a.856.856,0,0,1,.383-1.526l13.8-2.233Z" fill="#e0e0de"/>
    <path id="Path_270" data-name="Path 270" d="M3,24.231c.119-.1,1.363.538,1.491.595A29.364,29.364,0,0,1,8.15,26.752a22.254,22.254,0,0,1,7.426,7.465c1.5,2.5,2.634,7.136,6.258,7.136,1.736,0,3.709.056,5.029-1.268,1.613-1.621,1.642-3.986,2.14-6.078A66.02,66.02,0,0,1,42.787,7.232q.607-.727,1.233-1.438a34.889,34.889,0,0,1,2.692-2.71c.128-.117.351-.355.617-.628A.856.856,0,0,0,46.7,1c-5.451.173-18.42,3.026-25.724,24.943C20.978,25.943,9.849,18.238,3,24.231Z" fill="#ff7000"/>
    <path id="Path_271" data-name="Path 271" d="M2.053,23.231c.119-.1,1.363.538,1.491.595A29.364,29.364,0,0,1,7.2,25.752a22.255,22.255,0,0,1,7.426,7.465c1.5,2.5,2.634,7.136,6.258,7.136,1.736,0,3.709.056,5.029-1.268,1.613-1.621,1.642-3.986,2.14-6.078A66.02,66.02,0,0,1,41.84,6.232q.607-.727,1.233-1.438a34.89,34.89,0,0,1,2.692-2.71c.129-.117.351-.355.617-.628A.856.856,0,0,0,45.756,0C40.3.173,27.336,3.027,20.031,24.943,20.031,24.943,8.9,17.238,2.053,23.231Z" fill="#ff923d"/>
    <path id="Path_272" data-name="Path 272" d="M29.449,15.526a.845.845,0,0,1-.414-.108.856.856,0,0,1-.333-1.163C33.06,6.408,38.267,3.74,38.483,3.63a.857.857,0,0,1,.771,1.531c-.065.033-4.977,2.588-9.053,9.924A.857.857,0,0,1,29.449,15.526Z" fill="#ff7000"/>
    <path id="Path_273" data-name="Path 273" d="M26.88,19.806a.856.856,0,0,1-.765-1.239l.856-1.712a.856.856,0,0,1,1.532.766l-.856,1.712A.856.856,0,0,1,26.88,19.806Z" fill="#ff7000"/>
  </g>
</svg>
