<svg xmlns="http://www.w3.org/2000/svg" width="22.971" height="22.971" viewBox="0 0 22.971 22.971"><g transform="translate(-0.561 -0.561)"><path d="M23.255,6.483,17.611.839a.942.942,0,0,0-1.336,0L10.636,6.483a.945.945,0,0,0,1.336,1.336L15.989,3.8V20.339a.956.956,0,0,0,1.912,0V3.8l4.017,4.017a.945.945,0,0,0,1.336-1.336Z" fill="#999"/><path d="M13.458,16.275a.942.942,0,0,0-1.336,0L8.1,20.292V3.755a.956.956,0,1,0-1.912,0V20.292L2.175,16.275A.945.945,0,0,0,.839,17.611l5.644,5.644a.942.942,0,0,0,1.336,0l5.644-5.644A.946.946,0,0,0,13.458,16.275Z" fill="#999"/></g></svg>