<svg xmlns="http://www.w3.org/2000/svg" width="40" height="31.31" viewBox="0 0 40 31.31"><path d="M40,4.619A16.867,16.867,0,0,1,35.3,5.89a7.975,7.975,0,0,0,3.595-4.383,16.905,16.905,0,0,1-5.2,1.934,8.225,8.225,0,0,0-6.042-2.5,8.045,8.045,0,0,0-8.164,7.9,7.921,7.921,0,0,0,.21,1.8A23.622,23.622,0,0,1,2.792,2.39,7.6,7.6,0,0,0,1.683,6.35a7.706,7.706,0,0,0,3.652,6.557,8.358,8.358,0,0,1-3.728-.921v.055A7.988,7.988,0,0,0,8.184,19.8a8.339,8.339,0,0,1-3.69.129,8.149,8.149,0,0,0,7.648,5.489A16.691,16.691,0,0,1,1.95,28.8,17.3,17.3,0,0,1,0,28.691a23.868,23.868,0,0,0,12.581,3.555A22.761,22.761,0,0,0,35.927,9.757c0-.35,0-.681-.019-1.031A16.066,16.066,0,0,0,40,4.619Z" transform="translate(0 -0.935)" fill="#2ca5d9"/></svg>