<svg xmlns="http://www.w3.org/2000/svg" width="34.086" height="17.041" viewBox="0 0 34.086 17.041">
    <path id="gamepad-solid" fill="currentColor" d="M25.526,96H8.482a8.52,8.52,0,1,0,6.084,14.485h4.874A8.52,8.52,0,1,0,25.526,96Zm-12.358,9.159a.639.639,0,0,1-.639.639H9.76v2.769a.639.639,0,0,1-.639.639H7.843a.639.639,0,0,1-.639-.639V105.8H4.435a.639.639,0,0,1-.639-.639v-1.278a.639.639,0,0,1,.639-.639H7.2v-2.769a.639.639,0,0,1,.639-.639H9.121a.639.639,0,0,1,.639.639v2.769h2.769a.639.639,0,0,1,.639.639Zm11.5,4.047a2.13,2.13,0,1,1,2.13-2.13,2.13,2.13,0,0,1-2.13,2.13Zm3.408-5.112a2.13,2.13,0,1,1,2.13-2.13A2.13,2.13,0,0,1,28.079,104.094Z" transform="translate(0.041 -96)"/>
</svg>
