<svg id="UX_UI_white_48dp" xmlns="http://www.w3.org/2000/svg" width="24" height="24" viewBox="0 0 24 24">
    <path id="Path_38" data-name="Path 38" d="M0,0H24V24H0Z" fill="none"/>
    <path id="Path_39" data-name="Path 39" fill="currentColor" d="M7.5,5.6,10,7,8.6,4.5,10,2,7.5,3.4,5,2,6.4,4.5,5,7Zm12,9.8L17,14l1.4,2.5L17,19l2.5-1.4L22,19l-1.4-2.5L22,14ZM22,2,19.5,3.4,17,2l1.4,2.5L17,7l2.5-1.4L22,7,20.6,4.5ZM14.37,7.29a1,1,0,0,0-1.41,0L1.29,18.96a1,1,0,0,0,0,1.41l2.34,2.34a1,1,0,0,0,1.41,0L16.7,11.05a1,1,0,0,0,0-1.41L14.37,7.29Zm-1.03,5.49-2.12-2.12,2.44-2.44,2.12,2.12-2.44,2.44Z"/>
</svg>
